<svg width="26" height="26" viewBox="0 0 26 26" fill="none" xmlns="http://www.w3.org/2000/svg">
<path d="M6.53003 7.07495H11.3937" stroke="white" stroke-miterlimit="10" stroke-linecap="round"/>
<path d="M13.5437 18.1589H19.4479" stroke="white" stroke-miterlimit="10" stroke-linecap="round"/>
<path d="M15.9595 15.5002H19.4479" stroke="white" stroke-miterlimit="10" stroke-linecap="round"/>
<path d="M6.53003 10.2286H8.95955" stroke="white" stroke-miterlimit="10" stroke-linecap="round"/>
<path d="M22.9867 9.05515V21.6474C22.9867 22.1196 22.6062 22.5 22.1341 22.5H3.83931C3.36716 22.5 2.98669 22.1196 2.98669 21.6474V3.35265C2.98669 2.88049 3.36716 2.5 3.83931 2.5H17.0871" stroke="white" stroke-miterlimit="10" stroke-linecap="round"/>
<path d="M7.66227 15.3811L7.39183 17.7602C7.36891 17.9573 7.51102 18.1315 7.70813 18.1544C7.73563 18.1544 7.75854 18.1544 7.78605 18.1544L10.1514 17.884C10.2293 17.8748 10.3072 17.8381 10.3623 17.7831L22.7345 5.36505C23.0095 5.09001 23.0095 4.64078 22.7345 4.36574L21.1393 2.76133C20.8596 2.48629 20.4104 2.48629 20.1354 2.76133L7.76313 15.1748C7.70813 15.2298 7.67144 15.3032 7.66686 15.3811H7.66227Z" stroke="white" stroke-miterlimit="10" stroke-linecap="round"/>
<path d="M18.4668 4.43445L21.0293 7.07484" stroke="white" stroke-miterlimit="10" stroke-linecap="round"/>
</svg>
