<svg width="26" height="25" viewBox="0 0 26 25" fill="none" xmlns="http://www.w3.org/2000/svg">
<path d="M22.0897 8.00307L13.4363 13L4.77881 7.99487" stroke="currentColor" stroke-linecap="round" stroke-linejoin="round"/>
<path d="M13.4363 13V22.8463" stroke="currentColor" stroke-linecap="round" stroke-linejoin="round"/>
<path d="M12.4033 3.2767C13.0427 2.90777 13.8298 2.90777 14.4652 3.2767L21.3354 7.24472C21.9749 7.61365 22.3684 8.29412 22.3684 9.03197V16.968C22.3684 17.7059 21.9749 18.3864 21.3354 18.7553L14.4652 22.7233C13.8257 23.0922 13.0386 23.0922 12.4033 22.7233L5.533 18.7553C4.89352 18.3864 4.5 17.7059 4.5 16.968V9.03197C4.5 8.29412 4.89352 7.61365 5.533 7.24472L12.4033 3.2767Z" stroke="currentColor" stroke-linecap="round" stroke-linejoin="round"/>
<path d="M9.40283 5.01062L18.1669 10.2699" stroke="currentColor" stroke-linecap="round" stroke-linejoin="round"/>
</svg>
