<svg width="26" height="26" viewBox="0 0 26 26" fill="none" xmlns="http://www.w3.org/2000/svg">
<path d="M8.82983 4.50168V3" stroke="white" stroke-miterlimit="10" stroke-linecap="round"/>
<path d="M18.832 4.50168V3" stroke="white" stroke-miterlimit="10" stroke-linecap="round"/>
<path d="M23.3326 9.50293H12.5818M3.99854 9.50293H7.87454" stroke="white" stroke-miterlimit="10" stroke-linecap="round"/>
<path d="M15.8333 22.5038H11.8332C8.06287 22.5038 6.17538 22.5038 5.00431 21.3327C3.83325 20.1616 3.83325 18.2742 3.83325 14.5038V12.5015C3.83325 8.73111 3.83325 6.84362 5.00431 5.67256C6.17538 4.50149 8.06287 4.50146 11.8332 4.50146H15.8333C19.6036 4.50146 21.4911 4.50149 22.6622 5.67256C23.8333 6.84362 23.8333 8.73111 23.8333 12.5015V14.5038C23.8333 18.2742 23.8333 20.1616 22.6622 21.3327C22.0101 21.9848 21.1329 22.2742 19.8332 22.4028" stroke="white" stroke-miterlimit="10" stroke-linecap="round"/>
<path d="M10.8229 11.96H6.84131V13.5535H10.8229V11.96Z" stroke="white" stroke-miterlimit="10" stroke-linecap="round"/>
<path d="M10.8229 15.1147H6.84131V16.7083H10.8229V15.1147Z" stroke="white" stroke-miterlimit="10" stroke-linecap="round"/>
<path d="M10.8229 18.2695H6.84131V19.8631H10.8229V18.2695Z" stroke="white" stroke-miterlimit="10" stroke-linecap="round"/>
</svg>
