<svg width="26" height="25" viewBox="0 0 26 25" fill="none" xmlns="http://www.w3.org/2000/svg">
<path d="M2.5 9.99198L4.50045 10.9922L5.7714 7.18399C6.03293 6.39941 6.16599 6.00482 6.40917 5.71576C6.62481 5.45882 6.9001 5.26152 7.2121 5.13764C7.56539 4.99999 7.97832 5 8.80879 5H16.1912C17.0217 5 17.4346 4.99999 17.7879 5.13764C18.0999 5.26152 18.3752 5.45882 18.5909 5.71576C18.834 6.00482 18.9671 6.39941 19.2286 7.18399L20.4995 10.9922L22.5 9.99198M7.29928 10.9876H17.6916C19.3708 10.9876 20.2105 10.9876 20.8528 11.3134C21.4172 11.6024 21.876 12.0613 22.1651 12.6256C22.4908 13.268 22.4908 14.1076 22.4908 15.7869V18.4848C22.4908 18.9482 22.4908 19.1822 22.4541 19.3749C22.2981 20.1686 21.6787 20.788 20.885 20.944C20.6923 20.9807 20.4583 20.9808 19.9949 20.9808H19.4947C18.389 20.9808 17.4943 20.086 17.4943 18.9803C17.4943 18.705 17.2694 18.4802 16.9941 18.4802H8.00126C7.72597 18.4802 7.50113 18.705 7.50113 18.9803C7.50113 20.086 6.60644 20.9808 5.50068 20.9808H5.00058C4.53717 20.9808 4.30317 20.9807 4.11047 20.944C3.31671 20.788 2.69728 20.1686 2.54128 19.3749C2.50457 19.1822 2.50459 18.9482 2.50459 18.4848V15.7869C2.50459 14.1076 2.50457 13.268 2.83034 12.6256C3.1194 12.0613 3.57824 11.6024 4.14259 11.3134C4.78494 10.9876 5.62456 10.9876 7.30384 10.9876H7.29928Z" stroke="white" stroke-miterlimit="10" stroke-linecap="round"/>
<path d="M5.50049 13.9883H8.4966" stroke="white" stroke-miterlimit="10" stroke-linecap="round"/>
<path d="M16.4893 13.9883H19.4899" stroke="white" stroke-miterlimit="10" stroke-linecap="round"/>
</svg>
