<svg width="26" height="25" viewBox="0 0 26 25" fill="none" xmlns="http://www.w3.org/2000/svg">
<path d="M7.65585 6.10925H3.83115C3.09527 6.10925 2.5 6.70452 2.5 7.4404V19.4301C2.5 20.166 3.09527 20.7612 3.83115 20.7612H21.1689C21.9047 20.7612 22.5 20.166 22.5 19.4301V7.4404C22.5 6.70452 21.9047 6.10925 21.1689 6.10925H17.2035" stroke="currentColor" stroke-miterlimit="10" stroke-linecap="round"/>
<path d="M14.8555 7.73096V5.33115C14.8555 4.59597 14.2595 4 13.5243 4H11.3307C10.5956 4 9.9996 4.59597 9.9996 5.33115V7.73096C9.9996 8.46613 10.5956 9.0621 11.3307 9.0621H13.5243C14.2595 9.0621 14.8555 8.46613 14.8555 7.73096Z" stroke="currentColor" stroke-miterlimit="10"/>
<path d="M8.35901 15.7131C7.50596 15.7131 7.07943 15.7131 6.74195 15.8537C6.29199 16.0412 5.93577 16.3974 5.74828 16.8474C5.60767 17.1849 5.60767 17.6114 5.60767 18.4645M11.1104 18.4598C11.1104 17.6067 11.1104 17.1802 10.9697 16.8427C10.7823 16.3927 10.426 16.0365 9.97608 15.849C9.6386 15.7084 9.21207 15.7084 8.35901 15.7084M10.1917 12.2118C10.1917 13.2242 9.37144 14.0445 8.35901 14.0445C7.34659 14.0445 6.52634 13.2242 6.52634 12.2118C6.52634 11.1994 7.34659 10.3792 8.35901 10.3792C9.37144 10.3792 10.1917 11.1994 10.1917 12.2118Z" stroke="currentColor" stroke-miterlimit="10" stroke-linecap="round"/>
<path d="M13.3274 11.5837H19.8566" stroke="currentColor" stroke-miterlimit="10" stroke-linecap="round"/>
<path d="M13.3274 14.0446H19.8566" stroke="currentColor" stroke-miterlimit="10" stroke-linecap="round"/>
<path d="M13.3274 16.51H16.5943" stroke="currentColor" stroke-miterlimit="10" stroke-linecap="round"/>
</svg>
