<svg width="25" height="25" viewBox="0 0 25 25" fill="none" xmlns="http://www.w3.org/2000/svg">
<path d="M21.5933 8.00405L12.9381 13.002L4.27881 7.99585" stroke="#1F232F" stroke-linecap="round" stroke-linejoin="round"/>
<path d="M12.938 13.0021V22.8504" stroke="#1F232F" stroke-linecap="round" stroke-linejoin="round"/>
<path d="M18.3501 20.1935L13.9672 22.7232C13.3276 23.0923 12.5404 23.0923 11.9049 22.7232L5.03321 18.7585C4.3936 18.3895 4 17.7089 4 16.9709V9.03321C4 8.2952 4.3936 7.6146 5.03321 7.24559L11.9049 3.27675C12.5445 2.90775 13.3317 2.90775 13.9672 3.27675L20.8389 7.24559C21.4785 7.6146 21.8721 8.2952 21.8721 9.03321V11.4973" stroke="#1F232F" stroke-linecap="round" stroke-linejoin="round"/>
<path d="M8.90356 5.01111L17.6695 10.2715" stroke="#1F232F" stroke-linecap="round" stroke-linejoin="round"/>
<path d="M21.8721 15.8803H15.5293M17.5301 17.877L15.5334 15.8803L17.5301 13.8835" stroke="#1F232F" stroke-linecap="round" stroke-linejoin="round"/>
</svg>
