<svg width="25" height="25" viewBox="0 0 25 25" fill="none" xmlns="http://www.w3.org/2000/svg">
<path d="M21.2942 8.19892L12.9799 13L4.66162 8.19104" stroke="#1A1F2E" stroke-linecap="round" stroke-linejoin="round"/>
<path d="M12.9797 13V22.4604" stroke="#1A1F2E" stroke-linecap="round" stroke-linejoin="round"/>
<path d="M18.1788 19.9082L13.9684 22.3383C13.354 22.6928 12.5978 22.6928 11.9873 22.3383L5.38632 18.5297C4.7719 18.1752 4.3938 17.5214 4.3938 16.8125V9.18743C4.3938 8.47849 4.7719 7.82469 5.38632 7.47022L11.9873 3.6577C12.6018 3.30323 13.358 3.30323 13.9684 3.6577L20.5695 7.47022C21.1839 7.82469 21.562 8.47849 21.562 9.18743V11.5545" stroke="#1A1F2E" stroke-linecap="round" stroke-linejoin="round"/>
<path d="M9.10425 5.32373L17.5249 10.3769" stroke="#1A1F2E" stroke-linecap="round" stroke-linejoin="round"/>
<path d="M15.4729 15.7648H21.5659M19.6438 13.8467L21.5619 15.7648L19.6438 17.6828" stroke="#1A1F2E" stroke-linecap="round" stroke-linejoin="round"/>
</svg>
