<svg width="93" height="13" viewBox="0 0 93 13" fill="none" xmlns="http://www.w3.org/2000/svg">
<path d="M92.9712 4.16547C92.6427 5.40821 92.3141 6.65094 91.9856 7.89369C91.8142 8.5222 91.6428 9.15072 91.4856 9.77924C91.4428 9.96493 91.3571 10.0363 91.1571 10.0363C90.6857 10.0363 90.2 10.0363 89.7286 10.0363C89.5001 10.0363 89.4715 9.96493 89.5287 9.75066C89.9286 8.27937 90.3143 6.79379 90.7 5.3225C90.7857 4.97967 90.7857 4.96539 90.4286 4.96539C89.8286 4.96539 89.2144 4.96539 88.6145 4.96539C88.3859 4.96539 88.2859 5.03681 88.2288 5.25107C87.8431 6.75094 87.4431 8.23651 87.0575 9.73637C87.0003 9.96493 86.9003 10.0506 86.6575 10.0363C86.2147 10.0221 85.7719 10.0363 85.329 10.0363C85.0148 10.0363 85.0005 10.0221 85.0862 9.7221C85.4719 8.2508 85.8576 6.77951 86.2575 5.3225C86.3433 4.97967 86.3575 4.97968 85.9861 4.97968C85.3719 4.97968 84.7577 4.97968 84.1577 4.97968C83.9292 4.97968 83.8292 5.03681 83.7721 5.26536C83.4007 6.72237 83.015 8.19366 82.6293 9.65067C82.5626 9.91731 82.3912 10.0506 82.1151 10.0506C81.6723 10.0506 81.2437 10.0506 80.8009 10.0506C80.6152 10.0506 80.5581 9.97921 80.6152 9.8078C81.1152 7.93654 81.6008 6.06529 82.1151 4.19403C82.3293 3.3941 82.8864 3.00842 83.7149 3.00842C86.4718 3.00842 89.2287 3.00842 91.9856 3.00842C92.4141 3.00842 92.7855 3.10841 92.9998 3.52266V4.17974L92.9712 4.16547Z" fill="#898A8D"/>
<path d="M51.2752 12.5361C51.5895 11.9076 51.9894 11.3219 52.3323 10.722C52.4037 10.6077 52.518 10.622 52.6179 10.622C53.3036 10.622 53.9892 10.622 54.6749 10.622C54.8892 10.622 55.1034 10.322 55.0463 10.1221C55.0177 10.0221 54.9177 10.0506 54.8606 10.0506C54.5749 10.0506 54.2892 10.0506 54.0035 10.0506C52.9608 10.0506 51.918 10.0506 50.8895 10.0506C50.8324 10.0506 50.7753 10.0506 50.7181 10.0506C49.8325 10.0506 49.4897 9.63639 49.7182 8.77932C50.1896 6.92235 50.6895 5.06538 51.1752 3.2084C51.2181 3.05128 51.3181 3.00842 51.4752 3.00842C51.9609 3.00842 52.4465 3.00842 52.9322 3.00842C53.1465 3.00842 53.1893 3.07985 53.1322 3.27983C52.7751 4.60828 52.4322 5.93673 52.0751 7.27947C52.018 7.47945 51.9609 7.67943 51.918 7.87941C51.8894 8.00797 51.8894 8.07939 52.0609 8.07939C53.1893 8.07939 54.3035 8.07939 55.432 8.07939C55.632 8.07939 55.6605 7.95083 55.7034 7.80798C56.0176 6.59381 56.3462 5.37963 56.6604 4.17974C56.7461 3.86549 56.8318 3.55124 56.9033 3.23698C56.9461 3.06557 57.0318 3.00842 57.2032 3.00842C57.6889 3.00842 58.1746 3.00842 58.6602 3.00842C58.8888 3.00842 58.9317 3.07985 58.8745 3.29412C58.3888 5.12252 57.9032 6.93663 57.4318 8.76504C57.2175 9.59353 56.989 10.4077 56.7747 11.2362C56.6033 11.8933 56.2462 12.3647 55.5748 12.5504H51.3038L51.2752 12.5361Z" fill="#898A8D"/>
<path d="M18.8352 12.5361C18.9209 11.9933 19.0923 11.4648 19.2352 10.9363C19.8066 8.73647 20.3922 6.53666 20.9779 4.32258C21.2207 3.39409 21.7492 2.99414 22.692 2.99414C24.349 2.99414 25.9917 2.99414 27.6487 2.99414C27.7772 2.99414 27.9058 2.99413 28.0201 3.00842C28.5772 3.10841 28.8486 3.4798 28.72 4.02261C28.4343 5.17965 28.1344 6.33668 27.8344 7.49372C27.7201 7.90797 27.6201 8.33651 27.5058 8.75075C27.263 9.60782 26.7345 10.0221 25.8489 10.0221C24.6775 10.0221 23.5205 10.0221 22.3492 10.0221C22.0492 10.0221 22.0349 9.99349 22.1778 9.73637C22.4634 9.2507 22.7634 8.77932 23.0348 8.29365C23.1348 8.10796 23.2634 8.05081 23.4776 8.05081C24.1347 8.05081 24.8061 8.05081 25.4632 8.05081C25.6631 8.05081 25.7489 7.97939 25.7917 7.79369C26.006 6.92234 26.2345 6.06528 26.4774 5.20822C26.5345 5.02252 26.4916 4.9511 26.2917 4.9511C25.206 4.9511 24.1061 4.9511 23.0205 4.9511C22.8491 4.9511 22.7634 5.00824 22.7206 5.17965C22.0921 7.56515 21.4635 9.93636 20.835 12.3219C20.8207 12.379 20.8065 12.4504 20.8065 12.5218H18.8495L18.8352 12.5361Z" fill="#898A8D"/>
<path d="M11.7645 3.00842C13.5786 3.00842 15.3784 3.00842 17.1926 3.00842C17.6925 3.00842 17.8353 3.17983 17.7068 3.6655C17.2068 5.56533 16.7069 7.47944 16.2069 9.37926C16.0784 9.85065 15.8498 10.0363 15.3641 10.0363C12.2073 10.0363 9.06473 10.0363 5.90787 10.0363C5.47934 10.0363 5.4222 9.96493 5.52219 9.53639C5.59361 9.26499 5.66503 9.00787 5.72217 8.73647C5.80788 8.36508 5.6936 8.23652 5.32221 8.23652C5.16508 8.23652 5.00795 8.23652 4.85082 8.23652C4.66512 8.23652 4.56514 8.12224 4.60799 7.93655C4.67941 7.59372 4.77941 7.2509 4.8794 6.92236C4.93653 6.75094 5.0651 6.66524 5.25079 6.66524C5.45077 6.66524 5.65075 6.66524 5.85074 6.66524C6.10785 6.66524 6.29355 6.55096 6.36497 6.30813C6.5221 5.7796 6.66494 5.25108 6.7935 4.70827C6.85064 4.50829 6.75065 4.39401 6.5221 4.37972C6.30784 4.37972 6.07929 4.37972 5.86502 4.37972C5.65076 4.37972 5.57933 4.26545 5.62218 4.07975C5.67932 3.82263 5.75074 3.56551 5.82216 3.30839C5.89358 3.06556 6.07929 3.00842 6.30784 3.00842C8.12195 3.00842 9.95036 3.00842 11.7645 3.00842ZM13.9071 5.65103C14.2214 5.65103 14.5499 5.65103 14.8642 5.65103C15.0499 5.65103 15.1784 5.56533 15.2213 5.39392C15.2784 5.17965 15.3499 4.96538 15.3927 4.73683C15.4356 4.55114 15.3641 4.45115 15.1642 4.45115C14.5214 4.45115 13.8929 4.45115 13.2501 4.45115C13.0501 4.45115 12.9358 4.55114 12.8929 4.73683C12.8501 4.93682 12.793 5.13681 12.7358 5.33679C12.6787 5.55105 12.7644 5.63676 12.9644 5.63676C13.2786 5.63676 13.5786 5.63676 13.8928 5.63676L13.9071 5.65103Z" fill="#898A8D"/>
<path d="M46.5899 2.99402C47.6184 2.99402 48.6469 2.99402 49.6896 2.99402C50.0039 2.99402 50.0182 3.00831 49.8467 3.29399C49.5753 3.7511 49.2897 4.20819 49.0325 4.67957C48.9183 4.89384 48.7611 4.96527 48.5326 4.96527C47.047 4.96527 45.5471 4.96527 44.0616 4.96527C43.9473 4.96527 43.8187 4.93669 43.7473 5.09382C43.6045 5.45093 43.633 5.50807 44.0187 5.52236C45.2186 5.52236 46.4328 5.52236 47.6327 5.52236C47.8612 5.52236 48.0898 5.52235 48.304 5.55092C48.8326 5.59378 49.1611 5.96518 49.0611 6.4937C48.8897 7.36505 48.6754 8.22211 48.3755 9.05061C48.1183 9.75054 47.5327 10.0219 46.8185 10.0219C44.8044 10.0219 42.776 10.0219 40.7619 10.0219C40.4905 10.0219 40.4762 9.99338 40.5476 9.72198C40.6619 9.26487 40.7904 8.80777 40.9047 8.33639C40.9619 8.12212 41.0618 8.03641 41.2761 8.05069C42.9902 8.05069 44.7186 8.05069 46.4328 8.05069C46.5471 8.05069 46.6756 8.07926 46.747 7.90785C46.8899 7.50789 46.8756 7.46504 46.4471 7.46504C45.1758 7.46504 43.9044 7.46504 42.6188 7.46504C42.5189 7.46504 42.4189 7.46504 42.3189 7.46504C41.6189 7.43647 41.2761 7.03651 41.4475 6.35086C41.6189 5.60807 41.8189 4.86527 42.0332 4.12248C42.2475 3.36541 42.8045 2.97974 43.5759 2.97974C44.5758 2.97974 45.59 2.97974 46.5899 2.97974V2.99402Z" fill="#898A8D"/>
<path d="M64.3882 2.99414C65.431 2.99414 66.4738 2.99414 67.5022 2.99414C67.7879 2.99414 67.8022 3.0227 67.6594 3.26554C67.388 3.72264 67.1023 4.17974 66.8452 4.65113C66.7166 4.87968 66.5595 4.96538 66.3024 4.9511C64.9596 4.9511 63.6169 4.9511 62.2742 4.9511C62.1027 4.9511 61.9456 4.9511 61.7742 4.9511C61.5885 4.9511 61.3885 5.26536 61.4599 5.42248C61.5028 5.53676 61.6171 5.49391 61.7028 5.49391C62.6313 5.49391 63.5455 5.49391 64.474 5.49391C65.0025 5.49391 65.531 5.46534 66.0595 5.52247C66.6738 5.57961 66.988 5.95101 66.8595 6.55095C66.688 7.36516 66.4881 8.17937 66.2167 8.96501C65.9738 9.67923 65.4167 9.99349 64.6882 10.0078C62.6456 10.0078 60.6029 10.0078 58.5602 10.0078C58.3602 10.0078 58.2888 9.93635 58.3459 9.73637C58.4745 9.26498 58.6031 8.7936 58.7173 8.30793C58.7602 8.09366 58.8745 8.03653 59.0887 8.03653C60.7886 8.03653 62.4884 8.03653 64.1883 8.03653C64.5168 8.03653 64.6025 7.95082 64.6311 7.62228C64.6311 7.50801 64.5882 7.46515 64.4882 7.46515C64.4168 7.46515 64.3597 7.46515 64.2883 7.46515C62.9741 7.46515 61.6742 7.46515 60.36 7.46515C60.2458 7.46515 60.1458 7.46515 60.0315 7.46515C59.403 7.39373 59.103 7.00805 59.2459 6.39382C59.4173 5.63675 59.6173 4.86539 59.8458 4.1226C60.0744 3.36553 60.6029 2.99414 61.4028 2.99414C62.4027 2.99414 63.4026 2.99414 64.3882 2.99414Z" fill="#898A8D"/>
<path d="M77.3298 2.99414C78.1725 2.99414 79.0153 2.99414 79.8724 2.99414C80.0295 2.99414 80.1866 2.99413 80.3438 3.05127C80.7152 3.16554 80.9151 3.42267 80.9151 3.80835C80.9151 3.9512 80.9009 4.09403 80.858 4.22259C80.6866 4.90824 80.5152 5.57962 80.3152 6.25098C80.0724 7.09376 79.5581 7.46516 78.6725 7.47944C77.5012 7.47944 76.3441 7.47944 75.1728 7.47944C74.8586 7.47944 74.8443 7.47943 74.93 7.17946C75.0443 6.73664 75.1728 6.30811 75.2728 5.8653C75.3299 5.59389 75.4442 5.4939 75.7299 5.50819C76.5727 5.52247 77.4155 5.50819 78.2725 5.50819C78.5296 5.50819 78.7011 5.29392 78.6582 5.06537C78.6439 4.96538 78.5582 4.96538 78.4868 4.96538C78.3154 4.96538 78.1582 4.96538 77.9868 4.96538C77.0869 4.96538 76.1727 4.96538 75.2728 4.96538C75.0157 4.96538 74.9157 5.05108 74.8443 5.29392C74.6443 6.12241 74.4157 6.93663 74.2015 7.76513C74.13 8.0651 74.13 8.0651 74.4157 8.0651C75.687 8.0651 76.9584 8.0651 78.2297 8.0651C78.5439 8.0651 78.5582 8.07938 78.4011 8.36507C78.1154 8.85074 77.8154 9.33641 77.544 9.83636C77.4583 9.99349 77.3583 10.0506 77.1869 10.0363C75.7728 10.0363 74.3729 10.0363 72.9587 10.0363C72.8302 10.0363 72.7016 10.0078 72.5873 9.99349C72.1159 9.90778 71.8588 9.57924 71.9303 9.09358C72.016 8.45078 72.2302 7.83654 72.4016 7.19375C72.6445 6.23669 72.8873 5.29392 73.1587 4.33687C73.4301 3.35124 73.9158 2.99414 74.9443 2.99414C75.7442 2.99414 76.5584 2.99414 77.3583 2.99414H77.3298Z" fill="#898A8D"/>
<path d="M34.0623 2.99414C34.9051 2.99414 35.7336 2.99414 36.5764 2.99414C37.462 2.99414 37.8048 3.40838 37.5763 4.27973C37.2334 5.62246 36.8763 6.9652 36.5192 8.29365C36.4764 8.46506 36.4335 8.63648 36.3764 8.80789C36.1478 9.59353 35.6336 10.0221 34.8051 10.0363C33.091 10.0506 31.3625 10.0363 29.6484 10.0363C29.5341 10.0363 29.4199 10.0078 29.3056 9.99349C28.8342 9.90778 28.5771 9.55067 28.6485 9.07929C28.7342 8.49363 28.9199 7.95083 29.0628 7.37945C29.3199 6.37954 29.577 5.37963 29.8484 4.37972C30.1198 3.36553 30.6055 3.00842 31.6482 3.00842C32.4482 3.00842 33.2338 3.00842 34.0337 3.00842L34.0623 2.99414ZM32.7481 8.0651C33.2767 8.0651 33.8195 8.0651 34.348 8.0651C34.5623 8.0651 34.648 7.99367 34.6908 7.79369C34.9051 6.95091 35.1336 6.10813 35.3622 5.25107C35.4336 4.97966 35.4193 4.96538 35.1193 4.96538C34.0623 4.96538 33.0053 4.96538 31.9625 4.96538C31.7625 4.96538 31.6625 5.02252 31.6054 5.2225C31.3911 6.09385 31.1626 6.95091 30.9197 7.80798C30.8626 8.02224 30.9197 8.0651 31.134 8.0651C31.6625 8.0651 32.2053 8.0651 32.7339 8.0651H32.7481Z" fill="#898A8D"/>
<path d="M69.2306 10.0363C68.9449 10.022 68.6021 10.0649 68.245 10.0077C67.6165 9.90773 67.3451 9.53634 67.4879 8.90782C67.6736 8.13647 67.8736 7.37939 68.0879 6.60803C68.4878 5.09389 68.8878 3.57974 69.2878 2.06559C69.3449 1.83704 69.4449 1.73705 69.6877 1.75134C70.1448 1.76562 70.5876 1.75134 71.0447 1.75134C71.259 1.75134 71.3447 1.80848 71.2733 2.02274C71.2019 2.25129 71.159 2.49412 71.0876 2.72268C71.0162 2.93694 71.0447 3.03693 71.3019 3.00836C71.5447 2.99407 71.8018 3.00836 72.0589 3.00836C72.2161 3.00836 72.2875 3.05121 72.1875 3.20834C71.859 3.75115 71.5447 4.27968 71.2162 4.82248C71.1304 4.96533 71.0019 4.97961 70.8733 4.96533C70.5733 4.92247 70.4734 5.05104 70.4019 5.33672C70.202 6.16522 69.9734 6.97942 69.7591 7.80792C69.702 8.0079 69.7591 8.07933 69.9591 8.07933C70.202 8.07933 70.4448 8.07933 70.6876 8.07933C70.8733 8.07933 70.9447 8.13646 70.8876 8.33644C70.7448 8.8364 70.6162 9.35064 70.4876 9.86487C70.4448 10.022 70.3591 10.0649 70.2162 10.0649C69.9163 10.0649 69.6163 10.0649 69.2449 10.0649L69.2306 10.0363Z" fill="#898A8D"/>
<path d="M40.7903 0.451453C41.0189 0.451453 41.2617 0.451453 41.4902 0.451453C41.7045 0.451453 41.7616 0.508594 41.7045 0.72286C41.4045 1.82276 41.1188 2.93694 40.8332 4.03684C40.3332 5.93667 39.819 7.85078 39.3333 9.7506C39.2762 9.95058 39.1905 10.0363 38.9762 10.0363C38.5191 10.022 38.0477 10.0363 37.5906 10.0363C37.3192 10.0363 37.2906 10.0077 37.362 9.7506C37.8191 8.03647 38.262 6.30806 38.7191 4.59393C39.0619 3.30834 39.4047 2.02274 39.7333 0.737148C39.7904 0.508597 39.8904 0.437169 40.1189 0.451453C40.3475 0.465738 40.576 0.451453 40.8046 0.451453H40.7903Z" fill="#898A8D"/>
<path d="M2.9511 10.0362C2.494 10.0505 1.95119 9.99335 1.40839 10.0933C1.27983 10.1219 1.16555 10.1362 1.03699 10.1791C0.951282 10.2076 0.808444 10.2076 0.808444 10.3362C0.808444 10.4505 0.922718 10.4933 1.00842 10.5362C1.22269 10.6504 1.45123 10.6647 1.69407 10.679C1.95119 10.679 2.00833 10.7647 1.95119 11.0075C1.90834 11.2218 1.8512 11.4218 1.79406 11.6361C1.73692 11.836 1.60836 11.936 1.3941 11.936C0.994135 11.936 0.651308 11.7932 0.36562 11.5504C0.208491 11.4075 0.137075 11.2504 0.237065 11.0361C0.279919 10.9361 0.30849 10.8218 0.351343 10.7076C0.365628 10.6504 0.408475 10.579 0.322768 10.5362C0.137071 10.4505 0.194209 10.3076 0.222778 10.1648C0.251347 10.0362 0.308484 9.90765 0.322768 9.77909C0.39419 9.32199 0.694164 9.09344 1.09413 8.9506C1.59408 8.77918 2.10832 8.72205 2.62256 8.70776C3.29392 8.70776 3.9653 8.70776 4.63666 8.70776C4.99377 8.70776 5.06519 8.79347 4.97949 9.15058C4.95092 9.27914 4.92235 9.39341 4.8795 9.50769C4.76522 9.9505 4.6938 10.0076 4.22241 10.0076C3.82245 10.0076 3.43677 10.0076 2.9511 10.0076V10.0362Z" fill="#898A8D"/>
<path d="M3.83672 5.17958C3.76529 5.45098 3.72245 5.72238 3.60817 5.9795C3.53675 6.12234 3.39391 6.1652 3.25106 6.15091C2.99394 6.15091 2.73682 6.1652 2.4797 6.20805C2.13688 6.26519 1.79405 6.36518 1.50836 6.59373C1.45123 6.63658 1.39409 6.66515 1.32267 6.63658C1.25125 6.60801 1.23696 6.53658 1.23696 6.46516C1.22267 5.77951 1.60835 5.23671 2.27972 5.05101C2.69397 4.93673 3.13679 4.8796 3.56532 4.89388C3.73673 4.89388 3.83672 4.9653 3.83672 5.151V5.17958Z" fill="#898A8D"/>
<path d="M5.02211 6.17964C4.80784 6.17964 4.59358 6.17964 4.36503 6.17964C4.16505 6.17964 4.09362 6.07965 4.13647 5.87966C4.19361 5.65111 4.25075 5.40828 4.32218 5.17973C4.37931 5.00832 4.50788 4.90833 4.69357 4.90833C5.10782 4.90833 5.53635 4.90833 5.9506 4.90833C6.17915 4.90833 6.25057 5.00832 6.20772 5.23687C6.15058 5.46542 6.09344 5.69396 6.02202 5.90823C5.96489 6.09393 5.85061 6.17964 5.65063 6.17964C5.43636 6.17964 5.23637 6.17964 5.02211 6.17964Z" fill="#898A8D"/>
<path d="M3.23653 11.9361C3.02227 11.9361 2.82228 11.9361 2.60801 11.9361C2.37946 11.9361 2.30804 11.8361 2.3509 11.6218C2.6223 10.5077 2.5366 10.7076 3.4508 10.6934C3.66507 10.6934 3.89362 10.6934 4.10788 10.6934C4.365 10.6934 4.42214 10.7791 4.37929 11.0219C4.33644 11.2362 4.2793 11.4504 4.22216 11.6504C4.16502 11.8504 4.03646 11.9647 3.8222 11.9504C3.6365 11.9504 3.43652 11.9504 3.25082 11.9504L3.23653 11.9361Z" fill="#898A8D"/>
<path d="M2.33683 7.13662C2.25112 7.42231 2.20826 7.75086 2.06542 8.06511C2.00828 8.19367 1.894 8.25081 1.75116 8.27938C1.49404 8.32223 1.23692 8.39366 0.979802 8.49365C0.77982 8.57935 0.679829 8.49365 0.722682 8.29367C0.77982 8.02226 0.865532 7.75086 0.951238 7.47946C0.979807 7.37947 1.06551 7.29375 1.15122 7.23661C1.43691 7.0652 1.75117 6.96522 2.09399 6.90808C2.23684 6.89379 2.35111 6.90807 2.33683 7.13662Z" fill="#898A8D"/>
<path d="M3.20819 8.17928C2.75109 8.17928 2.57968 7.96025 2.69395 7.5222C2.72252 7.40792 2.75108 7.29364 2.77965 7.17937C2.83679 6.99367 2.96536 6.87939 3.16534 6.87939C3.40817 6.87939 3.651 6.87939 3.89383 6.87939C4.09382 6.87939 4.17952 7.00796 4.13667 7.19365C4.09381 7.40792 4.03669 7.6079 3.97955 7.82217C3.92241 8.065 3.76528 8.17928 3.50816 8.16499C3.40817 8.16499 3.30818 8.16499 3.20819 8.16499V8.17928Z" fill="#898A8D"/>
<path d="M4.22232 4.32258C3.59381 4.32258 3.57953 4.29402 3.72237 3.70836C3.83665 3.25126 4.13185 3.02271 4.608 3.02271C4.67942 3.02271 4.76513 3.02271 4.83655 3.02271C5.02225 3.02271 5.12224 3.12269 5.07938 3.32268C5.02225 3.56551 4.96511 3.80835 4.89369 4.05118C4.77942 4.39401 4.47944 4.33687 4.22232 4.33687V4.32258Z" fill="#898A8D"/>
<path d="M3.53665 3.33689C3.47951 3.57973 3.40808 3.86542 3.32238 4.16539C3.29381 4.27966 3.2081 4.36537 3.07954 4.40822C2.83671 4.47964 2.59388 4.53678 2.36532 4.62249C2.2082 4.67963 2.13678 4.57963 2.16534 4.43679C2.2082 4.1511 2.26534 3.86541 2.37961 3.59401C2.43675 3.45117 2.55103 3.35117 2.69387 3.27975C2.90814 3.17976 3.1224 3.1369 3.35095 3.10834C3.50808 3.07977 3.56522 3.1512 3.56522 3.35118L3.53665 3.33689Z" fill="#898A8D"/>
<path d="M7.50759 11.936C6.93622 11.936 6.93622 11.936 7.06478 11.3932C7.23619 10.6218 7.26476 10.6647 8.13611 10.6933C8.32181 10.6933 8.39323 10.8075 8.35038 10.9789C8.30752 11.2075 8.25038 11.4361 8.17896 11.6503C8.06468 11.9931 7.76471 11.9074 7.50759 11.9217V11.936Z" fill="#898A8D"/>
<path d="M5.13663 11.9361C4.72239 11.9361 4.67953 11.879 4.77952 11.5076C4.80809 11.3933 4.83666 11.279 4.86523 11.1648C4.9795 10.7077 5.12235 10.622 5.57945 10.6791C5.76514 10.7077 5.83657 10.7934 5.79372 10.9648C5.73658 11.2076 5.67944 11.4505 5.59374 11.6933C5.52231 11.9361 5.30805 11.9504 5.13663 11.9361Z" fill="#898A8D"/>
<path d="M5.92212 11.679C5.97926 11.4076 6.0364 11.1362 6.15067 10.879C6.2221 10.7219 6.36494 10.6648 6.52207 10.7076C6.70777 10.7648 6.66491 10.9076 6.63634 11.0362C6.5792 11.2647 6.52207 11.4933 6.45065 11.7075C6.39351 11.8647 6.26495 11.9361 6.09354 11.9218C5.96498 11.9075 5.92212 11.8075 5.92212 11.679Z" fill="#898A8D"/>
<path d="M1.59375 5.16539C1.69374 4.65116 1.76517 4.13691 2.03657 3.66553C1.96515 4.19405 1.95086 4.72258 1.59375 5.16539Z" fill="#898A8D"/>
</svg>
