<svg width="26" height="25" viewBox="0 0 26 25" fill="none" xmlns="http://www.w3.org/2000/svg">
<path d="M7.71717 14.464H18.2704M7.71717 14.464V11.8818C7.71717 11.2795 7.71717 10.9762 7.83283 10.7487C7.93609 10.5465 8.09717 10.3822 8.29543 10.2769C8.52261 10.159 8.81587 10.159 9.40652 10.159H16.5852C17.1759 10.159 17.4733 10.159 17.6963 10.2769C17.8946 10.378 18.0557 10.5465 18.1589 10.7487C18.2746 10.9804 18.2746 11.2795 18.2746 11.8818V14.464V22M7.71717 14.464V22M19.6954 6.03924L15.2635 3.77719C14.4333 3.35173 14.0161 3.14112 13.5824 3.05687C13.1983 2.98104 12.8017 2.98104 12.4135 3.05687C11.9798 3.14112 11.5626 3.35173 10.7324 3.77719L6.30043 6.03924C5.28435 6.55737 4.7763 6.81853 4.40457 7.20186C4.07413 7.54307 3.8263 7.95588 3.67348 8.40661C3.5 8.91631 3.5 9.49762 3.5 10.656V20.2729C3.5 20.8753 3.5 21.1786 3.61565 21.4061C3.71891 21.6082 3.88 21.7725 4.07826 21.8778C4.30543 21.9958 4.5987 21.9958 5.18935 21.9958H20.8107C21.4013 21.9958 21.6987 21.9958 21.9217 21.8778C22.12 21.7725 22.2811 21.6082 22.3843 21.4061C22.5 21.1744 22.5 20.8753 22.5 20.2729V10.656C22.5 9.49762 22.5 8.91631 22.3265 8.40661C22.1737 7.95588 21.9217 7.54307 21.5954 7.20186C21.2237 6.81432 20.7157 6.55737 19.6996 6.03924H19.6954Z" stroke="currentColor" stroke-linecap="round" stroke-linejoin="round"/>
</svg>
