<svg width="19" height="16" viewBox="0 0 19 16" fill="none" xmlns="http://www.w3.org/2000/svg">
<path d="M5.10187 12C5.37218 12 5.59056 12.2234 5.59056 12.5V15.5C5.59056 15.7766 5.37218 16 5.10187 16H2.16977C1.89947 16 1.68109 15.7766 1.68109 15.5V12.5C1.68109 12.2234 1.89947 12 2.16977 12H5.10187ZM4.61319 14.5V13.5C4.61319 13.2234 4.39481 13 4.12451 13H3.14714C2.87684 13 2.65846 13.2234 2.65846 13.5V14.5C2.65846 14.7766 2.87684 15 3.14714 15H4.12451C4.39481 15 4.61319 14.7766 4.61319 14.5ZM16.8303 13C17.1006 13 17.319 13.2234 17.319 13.5V14.5C17.319 14.7766 17.1006 15 16.8303 15H8.03397C7.76367 15 7.54529 14.7766 7.54529 14.5V13.5C7.54529 13.2234 7.76367 13 8.03397 13H16.8303ZM16.8303 7C17.1006 7 17.319 7.22344 17.319 7.5V8.5C17.319 8.77656 17.1006 9 16.8303 9H8.03397C7.76367 9 7.54529 8.77656 7.54529 8.5V7.5C7.54529 7.22344 7.76367 7 8.03397 7H16.8303ZM5.10187 0C5.37218 0 5.59056 0.223437 5.59056 0.5V3C5.59056 3.27656 5.37218 4 5.10187 4H2.16977C1.89947 4 1.68109 3.77656 1.68109 3.5V0.5C1.68109 0.223437 1.89947 0 2.16977 0H5.10187ZM4.61319 2.5V1.5C4.61319 1.22344 4.39481 1 4.12451 1H3.14714C2.87684 1 2.65846 1.22344 2.65846 1.5V2.5C2.65846 2.77656 2.87684 3 3.14714 3H4.12451C4.39481 3 4.61319 2.77656 4.61319 2.5ZM5.10187 6C5.37218 6 5.59056 6.22344 5.59056 6.5V9.5C5.59056 9.77656 5.37218 10 5.10187 10H2.16977C1.89947 10 1.68109 9.77656 1.68109 9.5V6.5C1.68109 6.22344 1.89947 6 2.16977 6H5.10187ZM4.61319 8.5V7.5C4.61319 7.22344 4.39481 7 4.12451 7H3.14714C2.87684 7 2.65846 7.22344 2.65846 7.5V8.5C2.65846 8.77656 2.87684 9 3.14714 9H4.12451C4.39481 9 4.61319 8.77656 4.61319 8.5ZM16.8303 1C17.1006 1 17.319 1.22344 17.319 1.5V2.5C17.319 2.77656 17.1006 3 16.8303 3H8.03397C7.76367 3 7.54529 2.77656 7.54529 2.5V1.5C7.54529 1.22344 7.76367 1 8.03397 1H16.8303Z" fill="white"/>
</svg>
