<svg width="129" height="42" viewBox="0 0 129 42" fill="none" xmlns="http://www.w3.org/2000/svg">
<path d="M22.7904 25.744V16.9751L15.1936 12.5851L22.7904 8.19507L28.8281 11.6783C29.7901 12.2312 30.3872 13.2596 30.3872 14.3654V30.1119L22.7904 25.7219V25.744Z" fill="currentColor"/>
<path d="M15.1936 12.5852L7.59681 16.9752V25.7442L0 21.3652V14.3877C0 13.2819 0.597129 12.2535 1.55917 11.7006L15.1936 3.81628V12.5852Z" fill="currentColor"/>
<path d="M7.59681 25.7441L15.1936 30.1341L22.7904 25.7441V34.5131L16.7528 37.9963C15.7907 38.5492 14.6075 38.5492 13.6455 37.9963L0 30.1341L7.59681 25.7441Z" fill="currentColor"/>
<path d="M48.5252 2.0343V3.81352L41.3082 10.3522H48.5252V12.5762H38.0945V10.7747L45.2892 4.25833H38.0945V2.0343H48.5252Z" fill="currentColor"/>
<path d="M59.1782 0.5H61.4134V12.5542H59.1782V10.7416C59.1782 10.7416 59.0226 10.9084 58.7779 11.1753C58.3554 11.6535 57.8327 11.9982 57.1989 12.2206C56.565 12.443 55.7532 12.5542 54.7413 12.5542C54.2409 12.5542 53.7405 12.4986 53.2401 12.3874C52.7397 12.2762 52.2615 12.0983 51.8056 11.8537C51.3497 11.609 50.9493 11.3088 50.5935 10.964C50.2377 10.6193 49.9597 10.1856 49.7484 9.68523C49.5371 9.1737 49.437 8.61769 49.437 8.01721C49.437 7.41672 49.5371 6.86071 49.7484 6.36031C49.9597 5.84878 50.2377 5.42622 50.5935 5.08149C50.9493 4.73677 51.3497 4.43653 51.8056 4.19188C52.2615 3.94724 52.7397 3.76932 53.2401 3.65812C53.7405 3.54692 54.2409 3.49131 54.7413 3.49131C55.3529 3.49131 55.9312 3.55804 56.4538 3.69148C56.9765 3.82492 57.4213 3.99172 57.7771 4.203C58.133 4.41429 58.411 4.61445 58.6334 4.80349C58.8446 4.99253 59.0337 5.18157 59.1894 5.38174V0.5H59.1782ZM55.4752 10.5971C56.4649 10.5971 57.2545 10.3636 57.8438 9.90763C58.4332 9.4517 58.7223 8.81786 58.7223 8.02833C58.7223 7.2388 58.4332 6.60495 57.855 6.14903C57.2767 5.6931 56.4872 5.45958 55.4864 5.45958C54.4856 5.45958 53.5515 5.6931 52.8064 6.16015C52.0614 6.62719 51.6833 7.24992 51.6833 8.02833C51.6833 8.53985 51.8612 8.99578 52.217 9.3961C52.5729 9.79643 53.0399 10.0967 53.6182 10.2968C54.1853 10.497 54.808 10.5971 55.4864 10.5971H55.4752Z" fill="currentColor"/>
<path d="M72.2555 3.4801H74.4906V12.5764H72.2555V11.1752C71.8329 11.6534 71.3103 11.9981 70.6764 12.2205C70.0426 12.4429 69.2308 12.5541 68.2189 12.5541C67.7184 12.5541 67.218 12.4985 66.7176 12.3873C66.2172 12.2761 65.7391 12.0982 65.2831 11.8536C64.8272 11.6089 64.4269 11.3087 64.071 10.9639C63.7152 10.6192 63.4372 10.1855 63.2259 9.68513C63.0146 9.17361 62.9146 8.6176 62.9146 8.01712C62.9146 7.41663 63.0146 6.86062 63.2259 6.36022C63.4372 5.84869 63.7152 5.42613 64.071 5.0814C64.4269 4.73668 64.8272 4.43643 65.2831 4.19179C65.7391 3.94715 66.2172 3.76923 66.7176 3.65802C67.218 3.54682 67.7184 3.49122 68.2189 3.49122C69.1529 3.49122 70.0092 3.62466 70.7876 3.89155C71.566 4.15843 72.0553 4.49203 72.2555 4.87012V3.49122V3.4801ZM68.9528 10.597C69.9425 10.597 70.732 10.3635 71.3214 9.90754C71.9107 9.45161 72.1999 8.81777 72.1999 8.02824C72.1999 7.23871 71.9107 6.60486 71.3325 6.14893C70.7542 5.69301 69.9647 5.45949 68.9639 5.45949C67.9631 5.45949 67.029 5.69301 66.284 6.16005C65.5389 6.6271 65.1608 7.24983 65.1608 8.02824C65.1608 8.53976 65.3387 8.99569 65.6946 9.39601C66.0504 9.79634 66.5175 10.0966 67.0957 10.2967C67.6628 10.4969 68.2856 10.597 68.9639 10.597H68.9528Z" fill="currentColor"/>
<path d="M78.7051 12.5653H76.47V0.5H78.7051V12.5653Z" fill="currentColor"/>
<path d="M87.7125 3.48024C89.3805 3.48024 90.626 3.82496 91.4489 4.50329C92.2717 5.18162 92.6943 6.29363 92.6943 7.82821V12.5876H90.4592V7.82821C90.4592 6.97196 90.17 6.33811 89.6029 5.91554C89.0358 5.49298 88.0906 5.2817 86.7784 5.2817C85.8888 5.2817 85.0881 5.45962 84.3876 5.80434C83.687 6.14907 83.1977 6.60499 82.9197 7.17212V12.5876H80.6846V3.48024H82.9197V5.35954C83.3423 4.87025 83.965 4.43657 84.8101 4.04736C85.6553 3.66928 86.6227 3.46912 87.7125 3.46912V3.48024Z" fill="currentColor"/>
<path d="M103.392 3.4801H105.627V12.5764H103.392V11.1752C102.969 11.6534 102.446 11.9981 101.813 12.2205C101.179 12.4429 100.367 12.5541 99.3551 12.5541C98.8547 12.5541 98.3543 12.4985 97.8539 12.3873C97.3535 12.2761 96.8753 12.0982 96.4194 11.8536C95.9634 11.6089 95.5631 11.3087 95.2073 10.9639C94.8514 10.6192 94.5734 10.1855 94.3621 9.68513C94.1509 9.17361 94.0508 8.6176 94.0508 8.01712C94.0508 7.41663 94.1509 6.86062 94.3621 6.36022C94.5734 5.84869 94.8514 5.42613 95.2073 5.0814C95.5631 4.73668 95.9634 4.43643 96.4194 4.19179C96.8753 3.94715 97.3535 3.76923 97.8539 3.65802C98.3543 3.54682 98.8547 3.49122 99.3551 3.49122C100.289 3.49122 101.145 3.62466 101.924 3.89155C102.702 4.15843 103.192 4.49203 103.392 4.87012V3.49122V3.4801ZM100.089 10.597C101.079 10.597 101.868 10.3635 102.458 9.90754C103.047 9.45161 103.336 8.81777 103.336 8.02824C103.336 7.23871 103.047 6.60486 102.469 6.14893C101.89 5.69301 101.101 5.45949 100.1 5.45949C99.0993 5.45949 98.1652 5.69301 97.4202 6.16005C96.6751 6.6271 96.297 7.24983 96.297 8.02824C96.297 8.53976 96.475 8.99569 96.8308 9.39601C97.1867 9.79634 97.6537 10.0966 98.232 10.2967C98.7991 10.4969 99.4218 10.597 100.1 10.597H100.089Z" fill="currentColor"/>
<path d="M45.9121 16.4906L51.372 27.0325H48.8255L47.6579 24.6973H41.4418L40.2742 27.0325H37.7388L43.1988 16.4906H45.9232H45.9121ZM42.3425 22.918H46.7683L44.5554 18.5033L42.3425 22.918Z" fill="currentColor"/>
<path d="M67.83 17.9363H70.2541L66.3287 27.0325H63.1373L60.4239 20.7497L57.7106 27.0325H54.5192L50.5938 17.9363H53.0179L56.1205 25.1088L59.2118 17.9363H61.6472L64.7386 25.1088L67.8411 17.9363H67.83Z" fill="currentColor"/>
<path d="M73.6346 17.1914H71.3994V14.9563H73.6346V17.1914ZM73.6346 27.0105H71.3994V17.9365H73.6346V27.0105Z" fill="currentColor"/>
<path d="M85.4664 17.9362V20.0379L78.0715 25.2199H85.4664V27.0102H75.2358V24.8195L82.5306 19.7154H75.2358V17.925H85.4664V17.9362Z" fill="currentColor"/>
<path d="M95.7079 17.9363H97.943V27.0325H95.7079V25.6314C95.2853 26.1096 94.7626 26.4543 94.1288 26.6767C93.4949 26.8991 92.6832 27.0103 91.6712 27.0103C91.1708 27.0103 90.6704 26.9547 90.17 26.8435C89.6696 26.7323 89.1915 26.5544 88.7355 26.3097C88.2796 26.0651 87.8793 25.7649 87.5234 25.4201C87.1676 25.0754 86.8896 24.6417 86.6783 24.1413C86.467 23.6298 86.3669 23.0738 86.3669 22.4733C86.3669 21.8728 86.467 21.3168 86.6783 20.8164C86.8896 20.3049 87.1676 19.8823 87.5234 19.5376C87.8793 19.1929 88.2796 18.8926 88.7355 18.648C89.1915 18.4033 89.6696 18.2254 90.17 18.1142C90.6704 18.003 91.1708 17.9474 91.6712 17.9474C92.6053 17.9474 93.4616 18.0808 94.24 18.3477C95.0184 18.6146 95.5077 18.9482 95.7079 19.3263V17.9474V17.9363ZM92.4052 25.0532C93.3949 25.0532 94.1844 24.8196 94.7738 24.3637C95.3631 23.9078 95.6523 23.2739 95.6523 22.4844C95.6523 21.6949 95.3631 21.061 94.7849 20.6051C94.2066 20.1492 93.4171 19.9157 92.4163 19.9157C91.4155 19.9157 90.4814 20.1492 89.7363 20.6162C88.9913 21.0833 88.6132 21.706 88.6132 22.4844C88.6132 22.9959 88.7911 23.4519 89.147 23.8522C89.5028 24.2525 89.9699 24.5528 90.5481 24.7529C91.1152 24.9531 91.738 25.0532 92.4163 25.0532H92.4052Z" fill="currentColor"/>
<path d="M105.527 25.22C106.45 25.22 107.239 25.0643 107.895 24.7418C108.552 24.4193 108.996 23.9856 109.23 23.4296H111.454C111.231 24.6528 110.609 25.5536 109.575 26.1429C108.54 26.7323 107.195 27.0214 105.527 27.0214C103.636 27.0214 102.169 26.6545 101.101 25.9205C100.034 25.1866 99.4998 24.0412 99.4998 22.4955C99.4998 20.9498 100.034 19.7933 101.101 19.0483C102.169 18.3032 103.636 17.9363 105.527 17.9363C107.217 17.9363 108.574 18.2365 109.608 18.8259C110.642 19.4153 111.265 20.3382 111.465 21.5837H109.23C109.007 21.0054 108.574 20.5495 107.918 20.227C107.262 19.8934 106.472 19.7266 105.527 19.7266C104.337 19.7266 103.403 19.9601 102.747 20.4383C102.08 20.9165 101.746 21.5948 101.746 22.4955C101.746 23.3963 102.08 24.0635 102.747 24.5305C103.414 24.9976 104.337 25.2311 105.527 25.2311V25.22Z" fill="currentColor"/>
<path d="M112.888 26.6102V17.9365H115.124V27.7778C115.124 28.6007 114.846 29.2123 114.279 29.6126C113.711 30.013 112.922 30.2131 111.899 30.2131C111.132 30.2131 110.209 30.1353 109.13 29.9907V28.1893C109.942 28.3005 110.653 28.3561 111.276 28.3561C111.932 28.3561 112.366 28.2449 112.577 28.0113C112.788 27.7778 112.9 27.3108 112.9 26.6102H112.888ZM115.124 17.1914H112.888V14.9563H115.124V17.1914Z" fill="currentColor"/>
<path d="M125.966 17.9363H128.201V27.0325H125.966V25.6314C125.543 26.1096 125.02 26.4543 124.387 26.6767C123.753 26.8991 122.941 27.0103 121.929 27.0103C121.429 27.0103 120.928 26.9547 120.428 26.8435C119.927 26.7323 119.449 26.5544 118.993 26.3097C118.537 26.0651 118.137 25.7649 117.781 25.4201C117.425 25.0754 117.147 24.6417 116.936 24.1413C116.725 23.6298 116.625 23.0738 116.625 22.4733C116.625 21.8728 116.725 21.3168 116.936 20.8164C117.147 20.3049 117.425 19.8823 117.781 19.5376C118.137 19.1929 118.537 18.8926 118.993 18.648C119.449 18.4033 119.927 18.2254 120.428 18.1142C120.928 18.003 121.429 17.9474 121.929 17.9474C122.863 17.9474 123.719 18.0808 124.498 18.3477C125.276 18.6146 125.765 18.9482 125.966 19.3263V17.9474V17.9363ZM122.663 25.0532C123.653 25.0532 124.442 24.8196 125.032 24.3637C125.621 23.9078 125.91 23.2739 125.91 22.4844C125.91 21.6949 125.621 21.061 125.043 20.6051C124.464 20.1492 123.675 19.9157 122.674 19.9157C121.673 19.9157 120.739 20.1492 119.994 20.6162C119.249 21.0833 118.871 21.706 118.871 22.4844C118.871 22.9959 119.049 23.4519 119.405 23.8522C119.761 24.2525 120.228 24.5528 120.806 24.7529C121.373 24.9531 121.996 25.0532 122.674 25.0532H122.663Z" fill="currentColor"/>
<path d="M45.4782 30.9469C46.9349 30.9469 48.1693 31.4584 49.2034 32.4926C50.2265 33.5268 50.7491 34.7611 50.7491 36.229C50.7491 37.6968 50.2376 38.9312 49.2034 39.9542C48.1693 40.9773 46.9349 41.4888 45.4782 41.4888H38.4836V30.9469H45.4782ZM45.4782 39.6317C46.4123 39.6317 47.2241 39.2981 47.8913 38.6309C48.5585 37.9637 48.8921 37.1631 48.8921 36.2178C48.8921 35.2726 48.5585 34.472 47.8913 33.8048C47.2241 33.1376 46.4234 32.804 45.4782 32.804H40.7188V39.6206H45.4782V39.6317Z" fill="currentColor"/>
<path d="M57.8661 32.3926C59.1004 32.3926 60.1457 32.5483 61.0242 32.8485C61.9027 33.1487 62.5921 33.6492 63.1037 34.3386C63.6152 35.028 63.871 35.8954 63.871 36.9518C63.871 38.4975 63.3372 39.6429 62.2697 40.3768C61.2021 41.1108 59.7343 41.4777 57.855 41.4777C55.9757 41.4777 54.4967 41.1108 53.4403 40.3768C52.3839 39.6429 51.8501 38.4975 51.8501 36.9518C51.8501 35.4061 52.3839 34.2496 53.4403 33.5046C54.4967 32.7595 55.9757 32.3926 57.855 32.3926H57.8661ZM55.0749 38.9868C55.7421 39.4427 56.6651 39.6763 57.855 39.6763C59.0448 39.6763 59.9678 39.4427 60.635 38.9757C61.3022 38.5086 61.6247 37.8303 61.6247 36.9407C61.6247 36.0511 61.2911 35.3505 60.6239 34.8835C59.9567 34.4053 59.0337 34.1718 57.855 34.1718C56.6762 34.1718 55.731 34.4053 55.0749 34.8835C54.4077 35.3617 54.0852 36.04 54.0852 36.9407C54.0852 37.8414 54.4188 38.5198 55.0749 38.9868Z" fill="currentColor"/>
<path d="M76.3812 37.4075C76.5814 37.7967 76.6814 38.1859 76.6814 38.5863C76.6814 38.9866 76.5591 39.3647 76.3478 39.7094C75.625 40.8881 73.8236 41.4886 70.9434 41.4886C68.3858 41.4886 66.64 40.9993 65.7059 40.0096C65.2499 39.5315 65.0164 39.0088 65.0164 38.4528H67.2627C67.4295 38.9866 68.6527 39.2535 70.9434 39.2535C73.0118 39.2535 74.1572 39.0867 74.3907 38.742C74.4685 38.5974 74.4574 38.4417 74.3684 38.2527C74.2795 38.1303 74.1238 38.0303 73.9014 37.9524C73.679 37.8746 73.3899 37.8301 73.034 37.8079C72.6782 37.7856 72.3668 37.7745 72.1111 37.7634C71.8553 37.7634 71.4995 37.7634 71.0658 37.7634C70.6321 37.7634 70.3541 37.7745 70.2429 37.7745H69.2198C69.0641 37.7745 68.8195 37.7745 68.5081 37.7523C68.1857 37.7411 67.941 37.7189 67.7631 37.6967C67.5852 37.6744 67.3628 37.6411 67.0959 37.5855C66.829 37.5299 66.6066 37.4743 66.4509 37.4075C66.2952 37.3408 66.1173 37.2519 65.9171 37.1407C65.717 37.0295 65.5724 36.9071 65.4612 36.7737C65.35 36.6402 65.2611 36.4734 65.1721 36.2733C65.0943 36.0842 65.0387 35.873 65.0164 35.6394C64.9497 34.8833 65.1499 34.2383 65.6169 33.7268C66.4509 32.8149 68.1745 32.3701 70.81 32.3701C73.4455 32.3701 75.069 32.8594 75.992 33.8269C76.4034 34.2605 76.6147 34.7387 76.6481 35.2502H74.4018C74.1683 34.8054 72.9673 34.583 70.8211 34.583C69.9426 34.583 69.2421 34.6053 68.7305 34.6497C68.219 34.6942 67.8965 34.7387 67.752 34.7832C67.6074 34.8277 67.4962 34.8944 67.3961 34.9833C67.2516 35.1168 67.2071 35.2836 67.2627 35.4838C67.2849 35.5505 67.3405 35.6172 67.4072 35.6728C67.4851 35.7284 67.5852 35.7729 67.7186 35.8062C67.852 35.8396 67.9855 35.8618 68.1078 35.873C68.2301 35.8841 68.3858 35.8952 68.5749 35.9063C68.7639 35.9063 68.9196 35.9174 69.053 35.9174C69.1865 35.9174 69.3421 35.9174 69.5312 35.9174C69.7202 35.9174 69.8537 35.9174 69.9204 35.9174H70.2318C71.1436 35.9174 71.8887 35.9286 72.4558 35.9619C73.0229 35.9953 73.6012 36.0509 74.1794 36.1398C74.7577 36.2399 75.2247 36.3845 75.5805 36.5958C75.9364 36.807 76.1921 37.0739 76.3701 37.4075H76.3812Z" fill="currentColor"/>
<path d="M86.6339 32.6596V34.4388H82.486V37.7749C82.486 38.5199 82.5972 39.0314 82.8085 39.2983C83.0198 39.5652 83.4646 39.6986 84.1318 39.6986C84.5766 39.6986 85.3884 39.6097 86.5894 39.4429V41.2332C85.5441 41.4111 84.521 41.5001 83.498 41.5001C82.4749 41.5001 81.6743 41.2999 81.1072 40.8996C80.54 40.4993 80.2509 39.8877 80.2509 39.0648V34.4499H77.6599V32.6707H80.2509V30.6135L82.486 30.0686V32.6707H86.6339V32.6596Z" fill="currentColor"/>
<path d="M96.7865 32.3926H99.0216V41.4888H96.7865V40.0877C96.3639 40.5659 95.8413 40.9106 95.2074 41.133C94.5736 41.3554 93.7618 41.4666 92.7499 41.4666C92.2495 41.4666 91.749 41.411 91.2486 41.2998C90.7482 41.1886 90.2701 41.0107 89.8141 40.766C89.3582 40.5214 88.9579 40.2211 88.6021 39.8764C88.2462 39.5317 87.9682 39.098 87.7569 38.5976C87.5456 38.0861 87.4456 37.5301 87.4456 36.9296C87.4456 36.3291 87.5456 35.7731 87.7569 35.2727C87.9682 34.7612 88.2462 34.3386 88.6021 33.9939C88.9579 33.6492 89.3582 33.3489 89.8141 33.1043C90.2701 32.8596 90.7482 32.6817 91.2486 32.5705C91.749 32.4593 92.2495 32.4037 92.7499 32.4037C93.6839 32.4037 94.5402 32.5371 95.3186 32.804C96.097 33.0709 96.5863 33.4045 96.7865 33.7826V32.4037V32.3926ZM93.4949 39.5095C94.4846 39.5095 95.2741 39.2759 95.8635 38.82C96.4529 38.3641 96.742 37.7302 96.742 36.9407C96.742 36.1512 96.4529 35.5173 95.8746 35.0614C95.2964 34.6055 94.5068 34.372 93.506 34.372C92.5052 34.372 91.5711 34.6055 90.8261 35.0725C90.081 35.5396 89.7029 36.1623 89.7029 36.9407C89.7029 37.4522 89.8809 37.9082 90.2367 38.3085C90.5926 38.7088 91.0596 39.0091 91.6378 39.2092C92.205 39.4094 92.8277 39.5095 93.506 39.5095H93.4949Z" fill="currentColor"/>
<path d="M117.403 32.3926H119.827L115.902 41.4888H112.71L109.997 35.206L107.284 41.4888H104.092L100.167 32.3926H102.591L105.694 39.5651L108.785 32.3926H111.22L114.312 39.5651L117.414 32.3926H117.403Z" fill="currentColor"/>
</svg>
