<svg width="16" height="20" viewBox="0 0 16 20" fill="none" xmlns="http://www.w3.org/2000/svg">
<path d="M8.24628 2.99953C9.53274 2.99953 10.7707 3.50546 11.6806 4.40525C12.5904 5.30505 13.1013 6.52409 13.1013 7.79708C13.1013 9.76667 13.5003 11.2387 14.0223 12.325C14.686 13.71 15.0179 14.4025 14.9993 14.5601C14.9769 14.7467 14.9508 14.7964 14.8128 14.9042C14.6972 14.9954 14.1155 14.9955 12.9521 14.9955H3.54789C2.38448 14.9955 1.80278 14.9954 1.68719 14.9042C1.54922 14.7964 1.52312 14.7467 1.50074 14.5601C1.4821 14.4025 1.81397 13.71 2.47771 12.325C2.99602 11.2428 3.39502 9.76667 3.39502 7.79708C3.39502 6.52409 3.90587 5.30505 4.81571 4.40525C5.72556 3.50546 6.95982 2.99953 8.25001 2.99953H8.24628ZM8.24628 2.99953V1.00098" stroke="white" stroke-width="1.5" stroke-linecap="round" stroke-linejoin="round"/>
<path d="M5.86719 17.9955C6.5011 18.6175 7.33637 18.9989 8.24994 18.9989C9.16351 18.9989 9.99876 18.6216 10.6327 17.9955" stroke="white" stroke-width="1.5" stroke-linecap="round" stroke-linejoin="round"/>
</svg>
