<svg width="20" height="21" viewBox="0 0 20 21" fill="none" xmlns="http://www.w3.org/2000/svg">
<path d="M9.99547 17.9658H7.77731C5.99315 17.9658 5.10911 17.9658 4.55457 17.4113C4.00003 16.8568 4.00003 15.9647 4.00003 14.1885C4.00003 12.4124 4.00003 11.5203 4.55457 10.9658C5.10911 10.4113 6.00119 10.4113 7.77731 10.4113H12.8164C14.6005 10.4113 15.4846 10.4113 16.0391 10.9658C16.5937 11.5203 16.5937 12.4124 16.5937 14.1885C16.5937 15.9647 16.5937 16.8568 16.0391 17.4113C15.4846 17.9658 14.93 17.9658 13.1459 17.9658H12.519" stroke="currentColor" stroke-miterlimit="10" stroke-linecap="round" stroke-linejoin="round"/>
<path d="M6.51529 10.1381V7.75114M13.9493 6.8028C13.5314 5.17134 12.0526 3.96582 10.2926 3.96582C9.17546 3.96582 8.17086 4.45606 7.4797 5.22759" stroke="currentColor" stroke-miterlimit="10" stroke-linecap="round" stroke-linejoin="round"/>
</svg>
