<svg width="25" height="26" viewBox="0 0 25 26" fill="none" xmlns="http://www.w3.org/2000/svg">
<path d="M17.4437 19.2481C17.4437 17.8016 17.1949 16.5393 16.9507 16.3596C16.7019 16.1799 14.9742 16.0002 13.0023 16.0002C11.0304 16.0002 9.29809 16.1799 9.0539 16.3596C8.80511 16.5393 8.56093 17.8061 8.56093 19.2481C8.56093 20.69 8.80511 21.9568 9.0539 22.1365C9.29809 22.3162 11.0304 22.4959 13.0023 22.4959C14.9742 22.4959 16.7019 22.3162 16.9507 22.1365C17.1949 21.9568 17.4437 20.6945 17.4437 19.2481ZM17.4437 19.2481C17.4437 19.2481 21.3322 18.9785 21.8897 18.7045C22.4471 18.4305 23 16.5393 23 14.3696C23 12.1999 22.4425 10.3087 21.8897 10.0347C21.5349 9.85949 19.8072 9.68879 17.4437 9.58547M8.55632 19.2481C8.55632 19.2481 4.66782 18.9785 4.11034 18.7045C3.55287 18.4305 3 16.5393 3 14.3696C3 12.1999 3.55748 10.3087 4.11034 10.0347C4.4651 9.85949 6.19281 9.68879 8.55632 9.58547M17.4483 9.58997C16.1214 9.53157 14.601 9.49563 13.0023 9.49563C11.4036 9.49563 9.8786 9.53157 8.55632 9.58997V7.33042C8.55632 5.40329 8.80511 3.71874 9.0493 3.48066C9.29809 3.23808 11.0258 3 12.9977 3C14.9696 3 16.7019 3.24258 16.9461 3.48066C17.1949 3.72323 17.4391 5.40779 17.4391 7.33042V9.58997" stroke="white" stroke-linecap="round" stroke-linejoin="round"/>
</svg>
