<svg width="25" height="25" viewBox="0 0 25 25" fill="none" xmlns="http://www.w3.org/2000/svg">
<path d="M9.74828 12.0588L14.2471 16.5294M14.2471 12.0588L9.74828 16.5294M18.7506 5.35294L17.8508 18.783C17.7728 19.9599 17.7314 20.5484 17.479 20.9909C17.254 21.3832 16.9143 21.698 16.5057 21.8941C16.0421 22.1176 15.4499 22.1176 14.2609 22.1176H9.74828C8.56389 22.1176 7.9671 22.1176 7.50344 21.8941C7.09487 21.698 6.75516 21.3832 6.53022 20.9909C6.27314 20.5438 6.23642 19.9553 6.15838 18.783L5.25861 5.35294M3 5.35294H21M16.5011 5.35294L16.1982 4.44514C15.9044 3.56471 15.7575 3.12677 15.482 2.80288C15.2387 2.51549 14.9311 2.29196 14.5777 2.1551C14.1829 2 13.7146 2 12.7827 2H11.2219C10.29 2 9.82173 2 9.42693 2.1551C9.07804 2.29196 8.76588 2.51549 8.52257 2.80288C8.24713 3.12677 8.10023 3.56927 7.80643 4.44514L7.50344 5.35294" stroke="currentColor" stroke-linecap="round" stroke-linejoin="round"/>
</svg>
