<svg width="25" height="25" viewBox="0 0 25 25" fill="none" xmlns="http://www.w3.org/2000/svg">
<path d="M5.54346 6.57495H10.4071" stroke="currentColor" stroke-miterlimit="10" stroke-linecap="round"/>
<path d="M12.5569 17.6589H18.4611" stroke="currentColor" stroke-miterlimit="10" stroke-linecap="round"/>
<path d="M14.9727 15.0002H18.4611" stroke="currentColor" stroke-miterlimit="10" stroke-linecap="round"/>
<path d="M5.54346 9.72864H7.97298" stroke="currentColor" stroke-miterlimit="10" stroke-linecap="round"/>
<path d="M22 8.55515V21.1474C22 21.6196 21.6195 22 21.1474 22H2.85262C2.38047 22 2 21.6196 2 21.1474V2.85265C2 2.38049 2.38047 2 2.85262 2H16.1004" stroke="currentColor" stroke-miterlimit="10" stroke-linecap="round"/>
<path d="M6.6757 14.8811L6.40526 17.2602C6.38234 17.4573 6.52444 17.6315 6.72156 17.6544C6.74906 17.6544 6.77197 17.6544 6.79948 17.6544L9.16481 17.384C9.24274 17.3748 9.32068 17.3381 9.37569 17.2831L21.7479 4.86505C22.023 4.59001 22.023 4.14078 21.7479 3.86574L20.1527 2.26133C19.8731 1.98629 19.4238 1.98629 19.1488 2.26133L6.77656 14.6748C6.72155 14.7298 6.68487 14.8032 6.68029 14.8811H6.6757Z" stroke="currentColor" stroke-miterlimit="10" stroke-linecap="round"/>
<path d="M17.4802 3.93445L20.0427 6.57484" stroke="currentColor" stroke-miterlimit="10" stroke-linecap="round"/>
</svg>
