<svg width="215" height="153" viewBox="0 0 215 153" fill="none" xmlns="http://www.w3.org/2000/svg">
<g clip-path="url(#clip0_1_15)">
<path d="M0.22583 106.199H6.47095V101.864L11.8652 100.548V106.199H21.8831V110.486H11.8652V119.155C11.8652 120.969 12.1221 122.189 12.6518 122.815C13.1816 123.457 14.2412 123.779 15.8306 123.779C16.8902 123.779 18.8809 123.57 21.7707 123.152V127.455C19.2662 127.888 16.7778 128.113 14.3215 128.113C11.8652 128.113 9.92262 127.632 8.54195 126.652C7.16128 125.689 6.47095 124.212 6.47095 122.237V110.486" fill="white"/>
<path d="M32.7678 104.401H27.3736V99.0067H32.7678V104.401ZM32.7678 128.065H27.3736V106.183H32.7678V128.065Z" fill="white"/>
<path d="M72.9036 106.199C76.4034 106.199 79.0202 107.018 80.7541 108.655C82.488 110.293 83.371 112.958 83.371 116.666V128.129H77.9767V116.666C77.9767 114.531 77.479 112.974 76.4997 111.995C75.5043 110.999 73.6581 110.518 70.9449 110.518C69.5 110.518 68.1515 110.775 66.9153 111.288C65.6631 111.802 64.6517 112.508 63.8811 113.407C64.0737 114.499 64.17 115.591 64.17 116.683V128.145H58.7758V116.683C58.7758 114.547 58.2781 112.99 57.2988 112.011C56.3034 111.015 54.4572 110.534 51.744 110.534C49.8978 110.534 48.2442 110.935 46.7993 111.754C45.3384 112.557 44.3109 113.632 43.7008 114.965V128.177H38.3066V106.247H43.7008V110.694C44.6159 109.538 45.9484 108.511 47.7144 107.596C49.4804 106.697 51.4711 106.247 53.7187 106.247C58.3744 106.247 61.4729 107.708 62.982 110.646C63.9132 109.49 65.2457 108.463 66.9956 107.58C68.7294 106.697 70.7202 106.247 72.9357 106.247L72.9036 106.199Z" fill="white"/>
<path d="M116.074 114.724C116.154 115.254 116.186 115.864 116.202 116.554C116.218 117.244 116.202 117.79 116.154 118.208L116.122 118.802H92.8751C93.2604 120.439 94.2237 121.675 95.7488 122.51C97.29 123.345 99.2968 123.762 101.801 123.762C105.606 123.762 108.335 122.719 109.989 120.648H115.817C115.062 123.185 113.457 125.047 111.032 126.267C108.608 127.487 105.526 128.097 101.801 128.097C97.2579 128.097 93.6939 127.214 91.1252 125.432C88.5565 123.65 87.2722 120.905 87.2722 117.18C87.2722 113.456 88.5565 110.662 91.1252 108.88C93.6939 107.098 97.2419 106.199 101.801 106.199C105.799 106.199 109.026 106.889 111.514 108.286C114.003 109.667 115.512 111.818 116.057 114.74L116.074 114.724ZM93.2122 114.515H110.503C109.877 113.263 108.801 112.284 107.26 111.561C105.735 110.855 103.904 110.486 101.801 110.486C97.2579 110.486 94.4003 111.834 93.2122 114.515Z" fill="white"/>
<path d="M137.169 106.199C138.726 106.199 140.187 106.376 141.536 106.745C142.884 107.098 144.12 107.66 145.244 108.399C146.368 109.137 147.251 110.148 147.909 111.433C148.567 112.717 148.888 114.21 148.888 115.896V128.081H143.526V115.896C143.318 113.937 142.386 112.508 140.733 111.609C139.079 110.71 137.024 110.341 134.568 110.518C133.123 110.614 131.71 110.967 130.33 111.609C128.949 112.235 127.793 113.07 126.878 114.13C125.963 115.189 125.497 116.297 125.497 117.485V128.097H120.103V99.0228H125.497V111.096C126.011 110.084 127.488 109.025 129.912 107.901C132.353 106.777 134.761 106.215 137.153 106.215L137.169 106.199Z" fill="white"/>
<path d="M176.373 106.199H181.768V128.129H176.373V123.57C175.346 124.742 173.821 125.801 171.782 126.732C169.743 127.664 167.415 128.129 164.798 128.129C160.785 128.129 157.783 127.31 155.792 125.657C153.801 124.019 152.806 121.338 152.806 117.63V106.183H158.2V117.63C158.2 119.701 158.89 121.258 160.255 122.301C161.62 123.345 163.899 123.859 167.078 123.859C169.229 123.859 171.14 123.425 172.825 122.574C174.511 121.724 175.699 120.6 176.373 119.203V106.199Z" fill="white"/>
<path d="M201.771 106.199C202.991 106.199 204.196 106.344 205.4 106.617C206.604 106.889 207.744 107.323 208.851 107.917C209.959 108.511 210.922 109.217 211.773 110.052C212.624 110.887 213.298 111.914 213.796 113.151C214.294 114.371 214.551 115.719 214.551 117.164C214.551 118.609 214.294 119.942 213.796 121.178C213.298 122.414 212.624 123.441 211.773 124.276C210.922 125.111 209.959 125.833 208.851 126.411C207.744 127.005 206.604 127.439 205.4 127.712C204.196 127.985 202.991 128.129 201.771 128.129C199.315 128.129 197.34 127.856 195.831 127.31C194.322 126.765 193.07 125.93 192.042 124.79C191.448 124.148 191.127 123.795 191.079 123.73V128.097H185.685V99.0228H191.079V110.775C191.464 110.293 191.914 109.827 192.428 109.378C192.941 108.928 193.632 108.431 194.483 107.917C195.334 107.403 196.393 106.986 197.661 106.681C198.93 106.36 200.294 106.215 201.787 106.215L201.771 106.199ZM200.005 123.329C201.627 123.329 203.12 123.088 204.501 122.607C205.881 122.125 207.005 121.402 207.872 120.439C208.739 119.476 209.172 118.384 209.172 117.148C209.172 115.286 208.273 113.793 206.475 112.653C204.677 111.529 202.526 110.951 200.021 110.951C197.517 110.951 195.703 111.497 194.306 112.605C192.909 113.712 192.203 115.222 192.203 117.148C192.203 119.075 192.909 120.584 194.322 121.675C195.735 122.783 197.629 123.329 200.021 123.329H200.005Z" fill="white"/>
<path d="M120.328 53.3965V32.0443L101.833 21.3682L120.328 10.6921L135.034 19.1849C137.378 20.5334 138.822 23.0379 138.822 25.735V64.0887L120.328 53.4126V53.3965Z" fill="white"/>
<path d="M101.817 21.3522L83.3229 32.0283V53.3805L64.8284 42.7044V25.719C64.8284 23.0218 66.2732 20.5174 68.6172 19.1688L101.817 0V21.3522Z" fill="white"/>
<path d="M83.3228 53.3965L101.817 64.0726L120.312 53.3965V74.7487L105.606 83.2414C103.262 84.59 100.372 84.59 98.0285 83.2414L64.8122 64.0726L83.3067 53.3965H83.3228Z" fill="white"/>
<path d="M90.9967 150.284C90.4991 150.284 90.0817 150.22 89.7124 150.091C89.3432 149.963 89.0221 149.754 88.717 149.481L88.6368 150.156H87.2882V140.539H88.8455V143.83C89.4395 143.445 90.1459 143.252 90.9807 143.252C91.9439 143.252 92.6985 143.525 93.2604 144.071C93.8223 144.617 94.0952 145.5 94.0952 146.72C94.0952 147.94 93.8223 148.855 93.2604 149.433C92.7146 150.011 91.96 150.3 90.9967 150.3V150.284ZM90.5793 149.112C91.2857 149.112 91.7834 148.92 92.0724 148.518C92.3614 148.117 92.5059 147.523 92.5059 146.704C92.5059 145.885 92.3453 145.275 92.0403 144.938C91.7192 144.601 91.2376 144.424 90.5633 144.424C89.889 144.424 89.295 144.617 88.8455 145.002V148.406C89.295 148.887 89.8729 149.128 90.5793 149.128V149.112Z" fill="white"/>
<path d="M96.3428 152.66C95.8291 152.66 95.3956 152.596 95.0264 152.468V151.312C95.1869 151.376 95.3314 151.408 95.4759 151.424C95.6204 151.44 95.7488 151.456 95.8933 151.456C96.1823 151.456 96.4231 151.408 96.5997 151.312C96.7763 151.215 96.9368 151.071 97.0813 150.862C97.2258 150.653 97.3703 150.397 97.5308 150.075L94.5126 143.397H96.1341L98.3014 148.422L100.501 143.397H102.106L99.345 149.77C99.1042 150.348 98.8473 150.846 98.5744 151.28C98.3014 151.713 97.9964 152.05 97.6272 152.307C97.274 152.548 96.8405 152.676 96.3268 152.676L96.3428 152.66Z" fill="white"/>
<path d="M215 143.252C214.631 144.649 214.262 146.046 213.892 147.443C213.7 148.149 213.507 148.855 213.33 149.562C213.282 149.77 213.186 149.851 212.961 149.851C212.431 149.851 211.885 149.851 211.356 149.851C211.099 149.851 211.067 149.77 211.131 149.53C211.58 147.876 212.014 146.206 212.447 144.553C212.544 144.168 212.544 144.151 212.142 144.151C211.468 144.151 210.778 144.151 210.103 144.151C209.847 144.151 209.734 144.232 209.67 144.473C209.237 146.158 208.787 147.828 208.354 149.514C208.289 149.77 208.177 149.867 207.904 149.851C207.406 149.835 206.909 149.851 206.411 149.851C206.058 149.851 206.042 149.835 206.138 149.498C206.572 147.844 207.005 146.19 207.455 144.553C207.551 144.168 207.567 144.168 207.149 144.168C206.459 144.168 205.769 144.168 205.095 144.168C204.838 144.168 204.725 144.232 204.661 144.489C204.244 146.126 203.81 147.78 203.377 149.417C203.302 149.717 203.109 149.867 202.799 149.867C202.301 149.867 201.819 149.867 201.322 149.867C201.113 149.867 201.049 149.787 201.113 149.594C201.675 147.491 202.221 145.388 202.799 143.285C203.04 142.385 203.666 141.952 204.597 141.952C207.695 141.952 210.794 141.952 213.892 141.952C214.374 141.952 214.791 142.064 215.032 142.53V143.268L215 143.252Z" fill="white"/>
<path d="M168.138 152.66C168.491 151.954 168.94 151.296 169.326 150.621C169.406 150.493 169.534 150.509 169.647 150.509C170.417 150.509 171.188 150.509 171.958 150.509C172.199 150.509 172.44 150.172 172.376 149.947C172.344 149.835 172.231 149.867 172.167 149.867C171.846 149.867 171.525 149.867 171.204 149.867C170.032 149.867 168.86 149.867 167.704 149.867C167.64 149.867 167.576 149.867 167.511 149.867C166.516 149.867 166.131 149.401 166.388 148.438C166.917 146.351 167.479 144.264 168.025 142.177C168.073 142 168.186 141.952 168.362 141.952C168.908 141.952 169.454 141.952 170 141.952C170.241 141.952 170.289 142.032 170.225 142.257C169.823 143.75 169.438 145.243 169.037 146.752C168.972 146.977 168.908 147.202 168.86 147.427C168.828 147.571 168.828 147.651 169.021 147.651C170.289 147.651 171.541 147.651 172.809 147.651C173.034 147.651 173.066 147.507 173.114 147.346C173.468 145.982 173.837 144.617 174.19 143.268C174.286 142.915 174.383 142.562 174.463 142.209C174.511 142.016 174.607 141.952 174.8 141.952C175.346 141.952 175.892 141.952 176.438 141.952C176.694 141.952 176.743 142.032 176.678 142.273C176.133 144.328 175.587 146.367 175.057 148.422C174.816 149.353 174.559 150.268 174.318 151.199C174.126 151.938 173.724 152.468 172.97 152.676H168.17L168.138 152.66Z" fill="white"/>
<path d="M131.678 152.66C131.775 152.05 131.967 151.456 132.128 150.862C132.77 148.39 133.428 145.917 134.086 143.429C134.359 142.385 134.953 141.936 136.013 141.936C137.875 141.936 139.721 141.936 141.584 141.936C141.728 141.936 141.873 141.936 142.001 141.952C142.627 142.064 142.932 142.482 142.788 143.092C142.467 144.392 142.13 145.693 141.792 146.993C141.664 147.459 141.552 147.94 141.423 148.406C141.15 149.369 140.556 149.835 139.561 149.835C138.244 149.835 136.944 149.835 135.628 149.835C135.29 149.835 135.274 149.803 135.435 149.514C135.756 148.968 136.093 148.438 136.398 147.892C136.511 147.683 136.655 147.619 136.896 147.619C137.634 147.619 138.389 147.619 139.127 147.619C139.352 147.619 139.449 147.539 139.497 147.33C139.738 146.351 139.994 145.388 140.267 144.424C140.332 144.216 140.283 144.135 140.059 144.135C138.838 144.135 137.602 144.135 136.382 144.135C136.19 144.135 136.093 144.2 136.045 144.392C135.339 147.073 134.632 149.738 133.926 152.419C133.91 152.484 133.894 152.564 133.894 152.644H131.694L131.678 152.66Z" fill="white"/>
<path d="M123.731 141.952C125.77 141.952 127.793 141.952 129.832 141.952C130.394 141.952 130.555 142.145 130.41 142.691C129.848 144.826 129.286 146.977 128.724 149.112C128.58 149.642 128.323 149.851 127.777 149.851C124.229 149.851 120.697 149.851 117.149 149.851C116.668 149.851 116.603 149.77 116.716 149.289C116.796 148.984 116.876 148.695 116.94 148.39C117.037 147.972 116.908 147.828 116.491 147.828C116.314 147.828 116.138 147.828 115.961 147.828C115.752 147.828 115.64 147.699 115.688 147.491C115.769 147.105 115.881 146.72 115.993 146.351C116.058 146.158 116.202 146.062 116.411 146.062C116.635 146.062 116.86 146.062 117.085 146.062C117.374 146.062 117.583 145.933 117.663 145.661C117.84 145.067 118 144.473 118.145 143.862C118.209 143.638 118.096 143.509 117.84 143.493C117.599 143.493 117.342 143.493 117.101 143.493C116.86 143.493 116.78 143.365 116.828 143.156C116.892 142.867 116.973 142.578 117.053 142.289C117.133 142.016 117.342 141.952 117.599 141.952C119.638 141.952 121.693 141.952 123.731 141.952ZM126.14 144.922C126.493 144.922 126.862 144.922 127.215 144.922C127.424 144.922 127.568 144.826 127.617 144.633C127.681 144.392 127.761 144.151 127.809 143.895C127.857 143.686 127.777 143.574 127.552 143.574C126.83 143.574 126.124 143.574 125.401 143.574C125.176 143.574 125.048 143.686 125 143.895C124.952 144.119 124.887 144.344 124.823 144.569C124.759 144.81 124.855 144.906 125.08 144.906C125.433 144.906 125.77 144.906 126.124 144.906L126.14 144.922Z" fill="white"/>
<path d="M162.872 141.936C164.028 141.936 165.184 141.936 166.356 141.936C166.709 141.936 166.725 141.952 166.532 142.273C166.227 142.787 165.906 143.301 165.617 143.83C165.489 144.071 165.312 144.151 165.055 144.151C163.385 144.151 161.7 144.151 160.03 144.151C159.902 144.151 159.757 144.119 159.677 144.296C159.516 144.697 159.548 144.762 159.982 144.778C161.331 144.778 162.695 144.778 164.044 144.778C164.301 144.778 164.557 144.778 164.798 144.81C165.392 144.858 165.762 145.275 165.649 145.869C165.456 146.849 165.216 147.812 164.879 148.743C164.59 149.53 163.931 149.835 163.129 149.835C160.865 149.835 158.585 149.835 156.322 149.835C156.017 149.835 156.001 149.803 156.081 149.498C156.209 148.984 156.354 148.47 156.482 147.94C156.546 147.699 156.659 147.603 156.9 147.619C158.826 147.619 160.769 147.619 162.695 147.619C162.824 147.619 162.968 147.651 163.048 147.459C163.209 147.009 163.193 146.961 162.711 146.961C161.282 146.961 159.854 146.961 158.409 146.961C158.296 146.961 158.184 146.961 158.072 146.961C157.285 146.929 156.9 146.479 157.092 145.709C157.285 144.874 157.51 144.039 157.75 143.204C157.991 142.353 158.617 141.92 159.484 141.92C160.608 141.92 161.748 141.92 162.872 141.92V141.936Z" fill="white"/>
<path d="M182.875 141.936C184.047 141.936 185.219 141.936 186.375 141.936C186.696 141.936 186.712 141.968 186.552 142.241C186.247 142.755 185.926 143.268 185.637 143.798C185.492 144.055 185.316 144.151 185.027 144.135C183.518 144.135 182.008 144.135 180.499 144.135C180.307 144.135 180.13 144.135 179.937 144.135C179.729 144.135 179.504 144.489 179.584 144.665C179.632 144.794 179.761 144.745 179.857 144.745C180.901 144.745 181.928 144.745 182.972 144.745C183.566 144.745 184.16 144.713 184.754 144.778C185.444 144.842 185.797 145.259 185.653 145.933C185.46 146.849 185.235 147.764 184.93 148.647C184.657 149.449 184.031 149.803 183.213 149.819C180.917 149.819 178.621 149.819 176.325 149.819C176.101 149.819 176.02 149.738 176.084 149.514C176.229 148.984 176.373 148.454 176.502 147.908C176.55 147.667 176.678 147.603 176.919 147.603C178.83 147.603 180.74 147.603 182.651 147.603C183.02 147.603 183.116 147.507 183.148 147.137C183.148 147.009 183.1 146.961 182.988 146.961C182.908 146.961 182.843 146.961 182.763 146.961C181.286 146.961 179.825 146.961 178.348 146.961C178.22 146.961 178.107 146.961 177.979 146.961C177.272 146.881 176.935 146.447 177.096 145.757C177.289 144.906 177.513 144.039 177.77 143.204C178.027 142.353 178.621 141.936 179.52 141.936C180.644 141.936 181.768 141.936 182.875 141.936Z" fill="white"/>
<path d="M197.421 141.936C198.368 141.936 199.315 141.936 200.278 141.936C200.455 141.936 200.631 141.936 200.808 142C201.225 142.129 201.45 142.418 201.45 142.851C201.45 143.012 201.434 143.172 201.386 143.317C201.193 144.087 201.001 144.842 200.776 145.596C200.503 146.543 199.925 146.961 198.93 146.977C197.613 146.977 196.313 146.977 194.996 146.977C194.643 146.977 194.627 146.977 194.723 146.64C194.852 146.142 194.996 145.66 195.109 145.163C195.173 144.858 195.301 144.745 195.622 144.761C196.57 144.778 197.517 144.761 198.48 144.761C198.769 144.761 198.962 144.521 198.914 144.264C198.898 144.151 198.801 144.151 198.721 144.151C198.528 144.151 198.352 144.151 198.159 144.151C197.148 144.151 196.12 144.151 195.109 144.151C194.82 144.151 194.707 144.248 194.627 144.521C194.402 145.452 194.146 146.367 193.905 147.298C193.824 147.635 193.824 147.635 194.146 147.635C195.574 147.635 197.003 147.635 198.432 147.635C198.785 147.635 198.801 147.651 198.625 147.972C198.304 148.518 197.966 149.064 197.661 149.626C197.565 149.803 197.453 149.867 197.26 149.851C195.671 149.851 194.097 149.851 192.508 149.851C192.363 149.851 192.219 149.819 192.091 149.803C191.561 149.706 191.272 149.337 191.352 148.791C191.448 148.069 191.689 147.378 191.882 146.656C192.155 145.58 192.428 144.521 192.733 143.445C193.038 142.337 193.584 141.936 194.74 141.936C195.639 141.936 196.554 141.936 197.453 141.936H197.421Z" fill="white"/>
<path d="M148.792 141.936C149.739 141.936 150.671 141.936 151.618 141.936C152.613 141.936 152.998 142.401 152.742 143.381C152.356 144.89 151.955 146.399 151.554 147.892C151.505 148.085 151.457 148.277 151.393 148.47C151.136 149.353 150.558 149.835 149.627 149.851C147.7 149.867 145.758 149.851 143.831 149.851C143.703 149.851 143.575 149.819 143.446 149.803C142.916 149.706 142.627 149.305 142.708 148.775C142.804 148.117 143.013 147.507 143.173 146.865C143.462 145.741 143.751 144.617 144.056 143.493C144.361 142.353 144.907 141.952 146.079 141.952C146.978 141.952 147.861 141.952 148.76 141.952L148.792 141.936ZM147.315 147.635C147.909 147.635 148.519 147.635 149.113 147.635C149.354 147.635 149.45 147.555 149.499 147.33C149.739 146.383 149.996 145.436 150.253 144.472C150.333 144.167 150.317 144.151 149.98 144.151C148.792 144.151 147.604 144.151 146.432 144.151C146.207 144.151 146.095 144.216 146.031 144.44C145.79 145.42 145.533 146.383 145.26 147.346C145.196 147.587 145.26 147.635 145.501 147.635C146.095 147.635 146.705 147.635 147.299 147.635H147.315Z" fill="white"/>
<path d="M188.318 149.851C187.997 149.835 187.611 149.883 187.21 149.819C186.504 149.706 186.199 149.289 186.359 148.582C186.568 147.715 186.793 146.865 187.033 145.998C187.483 144.296 187.932 142.594 188.382 140.892C188.446 140.636 188.559 140.523 188.832 140.539C189.345 140.555 189.843 140.539 190.357 140.539C190.598 140.539 190.694 140.603 190.614 140.844C190.533 141.101 190.485 141.374 190.405 141.631C190.325 141.872 190.357 141.984 190.646 141.952C190.919 141.936 191.208 141.952 191.497 141.952C191.673 141.952 191.753 142 191.641 142.177C191.272 142.787 190.919 143.381 190.549 143.991C190.453 144.151 190.309 144.167 190.164 144.151C189.827 144.103 189.715 144.248 189.634 144.569C189.409 145.5 189.153 146.415 188.912 147.346C188.848 147.571 188.912 147.651 189.137 147.651C189.409 147.651 189.682 147.651 189.955 147.651C190.164 147.651 190.244 147.715 190.18 147.94C190.02 148.502 189.875 149.08 189.731 149.658C189.682 149.835 189.586 149.883 189.426 149.883C189.088 149.883 188.751 149.883 188.334 149.883L188.318 149.851Z" fill="white"/>
<path d="M156.354 139.078C156.611 139.078 156.884 139.078 157.14 139.078C157.381 139.078 157.445 139.142 157.381 139.383C157.044 140.619 156.723 141.872 156.402 143.108C155.84 145.243 155.262 147.394 154.716 149.53C154.652 149.754 154.556 149.851 154.315 149.851C153.801 149.835 153.271 149.851 152.758 149.851C152.453 149.851 152.42 149.819 152.501 149.53C153.014 147.603 153.512 145.661 154.026 143.734C154.411 142.289 154.796 140.844 155.166 139.399C155.23 139.142 155.342 139.062 155.599 139.078C155.856 139.094 156.113 139.078 156.37 139.078H156.354Z" fill="white"/>
<path d="M113.826 149.851C113.312 149.867 112.702 149.803 112.092 149.915C111.948 149.947 111.819 149.963 111.675 150.011C111.578 150.043 111.418 150.043 111.418 150.188C111.418 150.316 111.546 150.364 111.643 150.413C111.883 150.541 112.14 150.557 112.413 150.573C112.702 150.573 112.766 150.669 112.702 150.942C112.654 151.183 112.59 151.408 112.526 151.649C112.461 151.874 112.317 151.986 112.076 151.986C111.626 151.986 111.241 151.825 110.92 151.552C110.744 151.392 110.663 151.215 110.776 150.975C110.824 150.862 110.856 150.734 110.904 150.605C110.92 150.541 110.968 150.461 110.872 150.413C110.663 150.316 110.727 150.156 110.76 149.995C110.792 149.851 110.856 149.706 110.872 149.562C110.952 149.048 111.289 148.791 111.739 148.631C112.301 148.438 112.879 148.374 113.457 148.358C114.211 148.358 114.966 148.358 115.72 148.358C116.122 148.358 116.202 148.454 116.106 148.855C116.074 149 116.041 149.128 115.993 149.257C115.865 149.754 115.785 149.819 115.255 149.819C114.805 149.819 114.372 149.819 113.826 149.819V149.851Z" fill="white"/>
<path d="M114.821 144.392C114.741 144.697 114.693 145.002 114.564 145.291C114.484 145.452 114.324 145.5 114.163 145.484C113.874 145.484 113.585 145.5 113.296 145.548C112.911 145.612 112.526 145.725 112.204 145.982C112.14 146.03 112.076 146.062 111.996 146.03C111.915 145.998 111.899 145.917 111.899 145.837C111.883 145.067 112.317 144.456 113.071 144.248C113.537 144.119 114.035 144.055 114.516 144.071C114.709 144.071 114.821 144.151 114.821 144.36V144.392Z" fill="white"/>
<path d="M116.154 145.516C115.913 145.516 115.672 145.516 115.415 145.516C115.191 145.516 115.11 145.404 115.158 145.179C115.223 144.922 115.287 144.649 115.367 144.392C115.431 144.2 115.576 144.087 115.785 144.087C116.25 144.087 116.732 144.087 117.197 144.087C117.454 144.087 117.535 144.2 117.486 144.456C117.422 144.713 117.358 144.97 117.278 145.211C117.213 145.42 117.085 145.516 116.86 145.516C116.619 145.516 116.395 145.516 116.154 145.516Z" fill="white"/>
<path d="M114.147 151.986C113.906 151.986 113.681 151.986 113.441 151.986C113.184 151.986 113.104 151.874 113.152 151.633C113.457 150.38 113.36 150.605 114.388 150.589C114.629 150.589 114.886 150.589 115.126 150.589C115.415 150.589 115.48 150.686 115.431 150.958C115.383 151.199 115.319 151.44 115.255 151.665C115.191 151.89 115.046 152.018 114.805 152.002C114.597 152.002 114.372 152.002 114.163 152.002L114.147 151.986Z" fill="white"/>
<path d="M113.136 146.592C113.039 146.913 112.991 147.282 112.831 147.635C112.766 147.78 112.638 147.844 112.477 147.876C112.188 147.924 111.899 148.004 111.61 148.117C111.386 148.213 111.273 148.117 111.321 147.892C111.386 147.587 111.482 147.282 111.578 146.977C111.61 146.865 111.707 146.768 111.803 146.704C112.124 146.511 112.477 146.399 112.863 146.335C113.023 146.319 113.152 146.335 113.136 146.592Z" fill="white"/>
<path d="M114.115 147.764C113.601 147.764 113.409 147.518 113.537 147.025C113.569 146.897 113.601 146.768 113.633 146.64C113.697 146.431 113.842 146.303 114.067 146.303C114.34 146.303 114.613 146.303 114.885 146.303C115.11 146.303 115.207 146.447 115.158 146.656C115.11 146.897 115.046 147.122 114.982 147.362C114.918 147.635 114.741 147.764 114.452 147.748C114.34 147.748 114.227 147.748 114.115 147.748V147.764Z" fill="white"/>
<path d="M115.255 143.429C114.548 143.429 114.532 143.397 114.693 142.739C114.821 142.225 115.153 141.968 115.688 141.968C115.768 141.968 115.865 141.968 115.945 141.968C116.154 141.968 116.266 142.08 116.218 142.305C116.154 142.578 116.09 142.851 116.009 143.124C115.881 143.509 115.544 143.445 115.255 143.445V143.429Z" fill="white"/>
<path d="M114.484 142.321C114.42 142.594 114.34 142.915 114.243 143.252C114.211 143.381 114.115 143.477 113.97 143.525C113.698 143.606 113.425 143.67 113.168 143.766C112.991 143.83 112.911 143.718 112.943 143.557C112.991 143.236 113.055 142.915 113.184 142.61C113.248 142.45 113.376 142.337 113.537 142.257C113.778 142.145 114.019 142.097 114.275 142.064C114.452 142.032 114.516 142.113 114.516 142.337L114.484 142.321Z" fill="white"/>
<path d="M118.947 151.986C118.305 151.986 118.305 151.986 118.45 151.376C118.642 150.509 118.674 150.557 119.654 150.589C119.862 150.589 119.943 150.718 119.894 150.91C119.846 151.167 119.782 151.424 119.702 151.665C119.573 152.05 119.236 151.954 118.947 151.97V151.986Z" fill="white"/>
<path d="M116.282 151.986C115.817 151.986 115.768 151.922 115.881 151.504C115.913 151.376 115.945 151.247 115.977 151.119C116.106 150.605 116.266 150.509 116.78 150.573C116.989 150.605 117.069 150.702 117.021 150.894C116.956 151.167 116.892 151.44 116.796 151.713C116.716 151.986 116.475 152.002 116.282 151.986Z" fill="white"/>
<path d="M117.165 151.697C117.229 151.392 117.294 151.087 117.422 150.798C117.502 150.621 117.663 150.557 117.84 150.605C118.048 150.669 118 150.83 117.968 150.974C117.904 151.231 117.84 151.488 117.759 151.729C117.695 151.906 117.551 151.986 117.358 151.97C117.213 151.954 117.165 151.841 117.165 151.697Z" fill="white"/>
<path d="M112.301 144.376C112.413 143.798 112.493 143.22 112.798 142.69C112.718 143.284 112.702 143.878 112.301 144.376Z" fill="white"/>
</g>
<defs>
<clipPath id="clip0_1_15">
<rect width="214.774" height="152.66" fill="white" transform="translate(0.22583)"/>
</clipPath>
</defs>
</svg>
