<svg width="25" height="26" viewBox="0 0 25 26" fill="none" xmlns="http://www.w3.org/2000/svg">
<path d="M21.2942 8.69928L12.9799 13.5004L4.66162 8.69141" stroke="currentColor" stroke-linecap="round" stroke-linejoin="round"/>
<path d="M12.9797 13.5V22.9604" stroke="currentColor" stroke-linecap="round" stroke-linejoin="round"/>
<path d="M18.1788 20.4084L13.9684 22.8385C13.354 23.193 12.5978 23.193 11.9873 22.8385L5.38632 19.0299C4.7719 18.6755 4.3938 18.0217 4.3938 17.3127V9.68768C4.3938 8.97874 4.7719 8.32494 5.38632 7.97047L11.9873 4.15794C12.6018 3.80347 13.358 3.80347 13.9684 4.15794L20.5695 7.97047C21.1839 8.32494 21.562 8.97874 21.562 9.68768V12.0548" stroke="currentColor" stroke-linecap="round" stroke-linejoin="round"/>
<path d="M9.10425 5.82373L17.5249 10.8769" stroke="currentColor" stroke-linecap="round" stroke-linejoin="round"/>
<path d="M15.4729 16.2652H21.5659M19.6438 14.3472L21.5619 16.2652L19.6438 18.1833" stroke="currentColor" stroke-linecap="round" stroke-linejoin="round"/>
</svg>
