<svg width="26" height="26" viewBox="0 0 26 26" fill="none" xmlns="http://www.w3.org/2000/svg">
<path d="M7.32983 5.00168V3.5" stroke="currentColor" stroke-miterlimit="10" stroke-linecap="round"/>
<path d="M17.332 5.00168V3.5" stroke="currentColor" stroke-miterlimit="10" stroke-linecap="round"/>
<path d="M21.8326 10.0029H11.0818M2.49854 10.0029H6.37454" stroke="currentColor" stroke-miterlimit="10" stroke-linecap="round"/>
<path d="M14.3333 23.0038H10.3332C6.56287 23.0038 4.67538 23.0038 3.50431 21.8327C2.33325 20.6616 2.33325 18.7742 2.33325 15.0038V13.0015C2.33325 9.23111 2.33325 7.34362 3.50431 6.17256C4.67538 5.00149 6.56287 5.00146 10.3332 5.00146H14.3333C18.1036 5.00146 19.9911 5.00149 21.1622 6.17256C22.3333 7.34362 22.3333 9.23111 22.3333 13.0015V15.0038C22.3333 18.7742 22.3333 20.6616 21.1622 21.8327C20.5101 22.4848 19.6329 22.7742 18.3332 22.9028" stroke="currentColor" stroke-miterlimit="10" stroke-linecap="round"/>
<path d="M9.32293 12.46H5.34131V14.0535H9.32293V12.46Z" stroke="currentColor" stroke-miterlimit="10" stroke-linecap="round"/>
<path d="M9.32293 15.6147H5.34131V17.2083H9.32293V15.6147Z" stroke="currentColor" stroke-miterlimit="10" stroke-linecap="round"/>
<path d="M9.32293 18.7695H5.34131V20.3631H9.32293V18.7695Z" stroke="currentColor" stroke-miterlimit="10" stroke-linecap="round"/>
<path d="M19.4263 16.4179L13.3333 16.4179M15.2553 18.3359L13.3373 16.4179L15.2553 14.4998" stroke="currentColor" stroke-linecap="round" stroke-linejoin="round"/>
</svg>
