<svg width="25" height="26" viewBox="0 0 25 26" fill="none" xmlns="http://www.w3.org/2000/svg">
<path d="M2 10.492L4.00045 11.4922L5.2714 7.68399C5.53293 6.89941 5.66599 6.50482 5.90917 6.21576C6.12481 5.95882 6.4001 5.76152 6.7121 5.63764C7.06539 5.49999 7.47832 5.5 8.30879 5.5H15.6912C16.5217 5.5 16.9346 5.49999 17.2879 5.63764C17.5999 5.76152 17.8752 5.95882 18.0909 6.21576C18.334 6.50482 18.4671 6.89941 18.7286 7.68399L19.9995 11.4922L22 10.492M6.79928 11.4876H17.1916C18.8708 11.4876 19.7105 11.4876 20.3528 11.8134C20.9172 12.1024 21.376 12.5613 21.6651 13.1256C21.9908 13.768 21.9908 14.6076 21.9908 16.2869V18.9848C21.9908 19.4482 21.9908 19.6822 21.9541 19.8749C21.7981 20.6686 21.1787 21.288 20.385 21.444C20.1923 21.4807 19.9583 21.4808 19.4949 21.4808H18.9947C17.889 21.4808 16.9943 20.586 16.9943 19.4803C16.9943 19.205 16.7694 18.9802 16.4941 18.9802H7.50126C7.22597 18.9802 7.00113 19.205 7.00113 19.4803C7.00113 20.586 6.10644 21.4808 5.00068 21.4808H4.50058C4.03717 21.4808 3.80317 21.4807 3.61047 21.444C2.81671 21.288 2.19728 20.6686 2.04128 19.8749C2.00457 19.6822 2.00459 19.4482 2.00459 18.9848V16.2869C2.00459 14.6076 2.00457 13.768 2.33034 13.1256C2.6194 12.5613 3.07824 12.1024 3.64259 11.8134C4.28494 11.4876 5.12456 11.4876 6.80384 11.4876H6.79928Z" stroke="currentColor" stroke-miterlimit="10" stroke-linecap="round"/>
<path d="M5.00061 14.4883H7.99673" stroke="currentColor" stroke-miterlimit="10" stroke-linecap="round"/>
<path d="M15.9894 14.4883H18.9901" stroke="currentColor" stroke-miterlimit="10" stroke-linecap="round"/>
</svg>
