<svg width="25" height="26" viewBox="0 0 25 26" fill="none" xmlns="http://www.w3.org/2000/svg">
<path d="M6.99658 5.00168V3.5" stroke="currentColor" stroke-miterlimit="10" stroke-linecap="round"/>
<path d="M16.9988 5.00168V3.5" stroke="currentColor" stroke-miterlimit="10" stroke-linecap="round"/>
<path d="M21.4994 10.0029H10.7485M2.16528 10.0029H6.04129" stroke="currentColor" stroke-miterlimit="10" stroke-linecap="round"/>
<path d="M14 23.0038H9.99999C6.22961 23.0038 4.34213 23.0038 3.17106 21.8327C1.99999 20.6616 2 18.7742 2 15.0038V13.0015C2 9.23111 1.99999 7.34362 3.17106 6.17256C4.34213 5.00149 6.22961 5.00146 9.99999 5.00146H14C17.7704 5.00146 19.6579 5.00149 20.8289 6.17256C22 7.34362 22 9.23111 22 13.0015V15.0038C22 18.7742 22 20.6616 20.8289 21.8327C20.1768 22.4848 19.2996 22.7742 18 22.9028" stroke="currentColor" stroke-miterlimit="10" stroke-linecap="round"/>
<path d="M8.98968 12.46H5.00806V14.0535H8.98968V12.46Z" stroke="currentColor" stroke-miterlimit="10" stroke-linecap="round"/>
<path d="M8.98968 15.6147H5.00806V17.2083H8.98968V15.6147Z" stroke="currentColor" stroke-miterlimit="10" stroke-linecap="round"/>
<path d="M8.98968 18.7695H5.00806V20.3631H8.98968V18.7695Z" stroke="currentColor" stroke-miterlimit="10" stroke-linecap="round"/>
<path d="M13 16.4181H19.093M17.1709 14.5L19.089 16.4181L17.1709 18.3362" stroke="currentColor" stroke-linecap="round" stroke-linejoin="round"/>
</svg>
