<svg width="61" height="51" viewBox="0 0 61 51" fill="none" xmlns="http://www.w3.org/2000/svg">
<g clip-path="url(#clip0_1_9)">
<path d="M19.2958 27.6868C15.7897 27.6868 12.9275 24.8308 12.9275 21.3058C12.9275 17.7807 15.7777 14.9248 19.2958 14.9248C22.8139 14.9248 25.6641 17.7807 25.6641 21.3058C25.6641 24.8308 22.8139 27.6868 19.2958 27.6868ZM19.2958 17.3266C17.1015 17.3266 15.3126 19.119 15.3126 21.3177C15.3126 23.5164 17.1015 25.3088 19.2958 25.3088C21.4901 25.3088 23.279 23.5164 23.279 21.3177C23.279 19.119 21.4901 17.3266 19.2958 17.3266Z" fill="#4E55A5"/>
<path d="M19.2958 43.2329C9.42135 43.2329 7.76367 41.2612 7.76367 36.8519C7.76367 33.2193 12.7248 30.4709 19.2958 30.4709C25.8669 30.4709 30.828 33.2074 30.828 36.8519C30.828 41.2612 29.1584 43.2329 19.2958 43.2329ZM19.2958 32.8728C14.0604 32.8728 10.1488 34.9759 10.1488 36.8639C10.1488 39.2657 10.1488 40.855 19.2958 40.855C28.4429 40.855 28.4429 39.2657 28.4429 36.8639C28.4429 34.9759 24.5312 32.8728 19.2958 32.8728Z" fill="#4E55A5"/>
<path d="M32.2233 51H21.8837C11.8184 51 6.76191 51 3.38694 47.6183C0.0119629 44.2366 0.0119629 39.1701 0.0119629 29.0848C0.0119629 18.9995 0.0119629 13.933 3.38694 10.5513C6.76191 7.16962 11.8184 7.16962 21.8837 7.16962H32.2233C32.8792 7.16962 33.4159 7.70734 33.4159 8.36456C33.4159 9.02177 32.8792 9.55949 32.2233 9.55949H21.8837C12.4743 9.55949 7.75175 9.55949 5.06846 12.2481C2.38518 14.9367 2.38518 19.6687 2.38518 29.0967C2.38518 38.5248 2.38518 43.2568 5.06846 45.9454C7.75175 48.634 12.4743 48.634 21.8837 48.634H32.2233C41.6327 48.634 46.3553 48.634 49.0386 45.9454C51.7218 43.2568 51.7218 38.5248 51.7218 29.0967C51.7218 28.4395 52.2585 27.9018 52.9144 27.9018C53.5703 27.9018 54.107 28.4395 54.107 29.0967C54.107 39.182 54.107 44.2486 50.732 47.6303C47.357 51.0119 42.3005 51.0119 32.2352 51.0119L32.2233 51Z" fill="white"/>
<path d="M38.7108 24.1856C39.7317 24.1856 40.5593 23.3563 40.5593 22.3334C40.5593 21.3105 39.7317 20.4813 38.7108 20.4813C37.69 20.4813 36.8624 21.3105 36.8624 22.3334C36.8624 23.3563 37.69 24.1856 38.7108 24.1856Z" fill="white"/>
<path d="M52.7593 24.4724C52.6878 24.4724 52.6162 24.4724 52.5566 24.4485C51.9126 24.329 51.4714 23.7196 51.5906 23.0623C51.9126 21.246 51.7933 19.3461 51.2567 17.5776C50.72 15.8091 49.7541 14.172 48.478 12.8456C47.202 11.5192 45.592 10.4916 43.8508 9.89411C42.1097 9.29664 40.2135 9.10545 38.3888 9.36833C37.7329 9.46393 37.1367 9.00985 37.0412 8.35264C36.9458 7.69542 37.399 7.09795 38.0549 7.00236C40.2493 6.69167 42.5271 6.91871 44.626 7.63567C46.7249 8.36459 48.645 9.58342 50.1953 11.1846C51.7337 12.7859 52.8905 14.7575 53.5464 16.8845C54.1904 19.0115 54.3335 21.2938 53.9519 23.4806C53.8565 24.0541 53.3437 24.4724 52.7832 24.4724H52.7593ZM59.5331 24.1258C59.4616 24.1258 59.39 24.1258 59.3304 24.1139C58.6864 23.9944 58.2452 23.373 58.3644 22.7278C58.8295 20.0511 58.6626 17.2549 57.8755 14.65C57.0764 12.045 55.6692 9.64317 53.773 7.68347C51.8888 5.72377 49.5275 4.21815 46.9634 3.33389C44.3994 2.44964 41.6207 2.1748 38.9255 2.55718C38.2577 2.65278 37.6733 2.18675 37.5779 1.54148C37.4825 0.884268 37.9357 0.286798 38.5916 0.191203C41.6565 -0.238975 44.8168 0.0597598 47.7386 1.07546C50.6604 2.07921 53.3437 3.78797 55.4903 6.02251C57.6369 8.24509 59.2469 10.9935 60.1533 13.9569C61.0596 16.9203 61.2504 20.0989 60.7138 23.146C60.6184 23.7315 60.1056 24.1378 59.5451 24.1378L59.5331 24.1258ZM45.4846 23.1818C45.4131 23.1818 45.3415 23.1818 45.2819 23.1699C44.6379 23.0504 44.1967 22.441 44.3159 21.7838C44.4352 21.1026 44.3875 20.4096 44.1967 19.7524C43.9939 19.0951 43.6362 18.4857 43.1711 17.9958C42.694 17.5059 42.0977 17.1235 41.4538 16.8965C40.8098 16.6694 40.1062 16.6097 39.4264 16.7053C38.7705 16.8009 38.1742 16.3348 38.0788 15.6896C37.9834 15.0323 38.4366 14.4349 39.0925 14.3393C40.1419 14.1959 41.2272 14.2915 42.217 14.638C43.2188 14.9845 44.137 15.5701 44.8764 16.3348C45.6158 17.0996 46.1644 18.0316 46.4745 19.0473C46.7846 20.063 46.8561 21.1504 46.6653 22.19C46.558 22.7755 46.0571 23.1818 45.4966 23.1818H45.4846Z" fill="white"/>
</g>
<defs>
<clipPath id="clip0_1_9">
<rect width="61" height="51" fill="white"/>
</clipPath>
</defs>
</svg>
