<svg width="26" height="26" viewBox="0 0 26 26" fill="none" xmlns="http://www.w3.org/2000/svg">
<path d="M7.55043 14.964H18.1037M7.55043 14.964V12.3818C7.55043 11.7795 7.55043 11.4762 7.66608 11.2487C7.76934 11.0465 7.93043 10.8822 8.12869 10.7769C8.35586 10.659 8.64912 10.659 9.23977 10.659H16.4185C17.0091 10.659 17.3065 10.659 17.5296 10.7769C17.7278 10.878 17.8889 11.0465 17.9922 11.2487C18.1078 11.4804 18.1078 11.7795 18.1078 12.3818V14.964V22.5M7.55043 14.964V22.5M19.5287 6.53924L15.0967 4.27719C14.2665 3.85173 13.8493 3.64112 13.4156 3.55687C13.0315 3.48104 12.635 3.48104 12.2467 3.55687C11.813 3.64112 11.3959 3.85173 10.5656 4.27719L6.13369 6.53924C5.1176 7.05737 4.60956 7.31853 4.23782 7.70186C3.90738 8.04307 3.65956 8.45588 3.50673 8.90661C3.33325 9.41631 3.33325 9.99762 3.33325 11.156V20.7729C3.33325 21.3753 3.33325 21.6786 3.4489 21.9061C3.55216 22.1082 3.71325 22.2725 3.91151 22.3778C4.13869 22.4958 4.43195 22.4958 5.0226 22.4958H20.6439C21.2346 22.4958 21.5319 22.4958 21.755 22.3778C21.9533 22.2725 22.1143 22.1082 22.2176 21.9061C22.3333 21.6744 22.3333 21.3753 22.3333 20.7729V11.156C22.3333 9.99762 22.3333 9.41631 22.1598 8.90661C22.0069 8.45588 21.755 8.04307 21.4287 7.70186C21.0569 7.31432 20.5489 7.05737 19.5328 6.53924H19.5287Z" stroke="currentColor" stroke-linecap="round" stroke-linejoin="round"/>
</svg>
