<svg width="78" height="16" viewBox="0 0 78 16" fill="none" xmlns="http://www.w3.org/2000/svg">
<path d="M3.09771 15.3642L0.354736 4.92334H2.75324L4.55212 12.5272L6.5934 6.2013V4.92334H8.4178L10.6887 12.5272L12.4876 4.92334H14.8606L12.1304 15.3642H9.87221L7.65232 8.53995L5.39415 15.3642H3.11047H3.09771Z" fill="white"/>
<path d="M21.9668 15.5815C20.1552 15.5815 18.739 15.1342 17.7439 14.2396C16.7488 13.345 16.2512 11.9776 16.2512 10.1246C16.2512 8.45046 16.6722 7.13417 17.527 6.16292C18.3818 5.19168 19.6704 4.70605 21.3927 4.70605C22.9747 4.70605 24.1612 5.12778 24.9649 5.94567C25.7687 6.77634 26.1642 7.84983 26.1642 9.15334V11.0958H18.5349C18.6497 12.1054 19.0197 12.8083 19.6321 13.1917C20.2445 13.5751 21.1886 13.7668 22.4516 13.7668C22.9747 13.7668 23.5233 13.7156 24.0846 13.6134C24.646 13.5112 25.1308 13.3834 25.5391 13.2172V14.9808C25.067 15.1853 24.5312 15.3386 23.9188 15.4409C23.3064 15.5431 22.6685 15.5942 21.9796 15.5942L21.9668 15.5815ZM18.5349 9.52395H24.0591V8.79551C24.0591 8.07986 23.855 7.51756 23.4723 7.10861C23.0768 6.69967 22.4133 6.50797 21.4692 6.50797C20.3593 6.50797 19.5938 6.75078 19.1728 7.23641C18.7518 7.72203 18.5477 8.4888 18.5477 9.52395H18.5349Z" fill="white"/>
<path d="M34.2528 15.5815C33.4873 15.5815 32.8367 15.4793 32.2753 15.2748C31.714 15.0704 31.2037 14.7509 30.7316 14.3291L30.604 15.3643H28.5372V0.527222H30.9357V5.61348C31.8416 5.01284 32.9387 4.70613 34.2145 4.70613C35.6945 4.70613 36.8682 5.12786 37.723 5.97131C38.5778 6.81476 39.0116 8.18217 39.0116 10.0608C39.0116 11.9394 38.5905 13.3451 37.7358 14.2397C36.881 15.1342 35.7328 15.5815 34.2656 15.5815H34.2528ZM33.6149 13.7796C34.6994 13.7796 35.4648 13.4729 35.9114 12.8595C36.3579 12.2461 36.5875 11.3132 36.5875 10.0608C36.5875 8.80837 36.3451 7.86268 35.8603 7.32594C35.3755 6.7892 34.61 6.53361 33.5766 6.53361C32.5432 6.53361 31.6119 6.84032 30.9357 7.44096V12.6806C31.6247 13.409 32.5177 13.7796 33.6149 13.7796Z" fill="white"/>
<path d="M42.1245 15.3642V6.75081H40.5425L40.7594 4.92334H44.523V15.3642H42.1245ZM41.9203 2.73803V0.757202H44.5357V2.73803H41.9203Z" fill="white"/>
<path d="M47.3043 15.3642V4.92331H49.4986L49.6135 6.02235C50.0855 5.65174 50.6469 5.34503 51.2975 5.08944C51.9482 4.83385 52.6754 4.70605 53.4664 4.70605C54.8187 4.70605 55.8011 5.02554 56.4135 5.65174C57.0259 6.27794 57.3321 7.26197 57.3321 8.60382V15.3642H54.9591V8.71883C54.9591 7.91372 54.7932 7.35142 54.4615 7.01915C54.1298 6.69967 53.5174 6.53353 52.5988 6.53353C52.063 6.53353 51.5272 6.64855 51.0041 6.8658C50.481 7.08305 50.0472 7.37698 49.69 7.72203V15.3642H47.2915H47.3043Z" fill="white"/>
<path d="M60.5853 15.3642V6.80194H59.0671V4.93612H60.5853V3.65817C60.5853 2.61024 60.8788 1.77957 61.4529 1.1406C62.027 0.501618 62.8945 0.182129 64.0428 0.182129C64.4638 0.182129 64.8593 0.220467 65.2037 0.284365C65.5482 0.348263 65.8799 0.43772 66.1734 0.565516V2.27798C65.7141 2.11184 65.2548 2.03516 64.7827 2.03516C64.0938 2.03516 63.6217 2.16296 63.3538 2.40577C63.0859 2.64858 62.9583 3.08309 62.9583 3.68373V4.93612H65.6886L65.5737 6.80194H62.9583V15.3642H60.5853Z" fill="white"/>
<path d="M72.5523 15.5815C70.6769 15.5815 69.2991 15.1086 68.4315 14.1757C67.564 13.2428 67.1174 11.8882 67.1174 10.1502C67.1174 8.41216 67.5512 7.05753 68.4315 6.12462C69.3118 5.19171 70.6769 4.71887 72.5396 4.71887C74.4023 4.71887 75.7929 5.19171 76.6732 6.12462C77.5535 7.07031 77.9873 8.41216 77.9873 10.1502C77.9873 11.8882 77.5535 13.2428 76.6732 14.1757C75.8056 15.1214 74.415 15.5815 72.5268 15.5815H72.5523ZM72.5523 13.5623C73.6495 13.5623 74.4278 13.294 74.8998 12.7572C75.3591 12.2205 75.5888 11.3515 75.5888 10.1502C75.5888 8.9489 75.3591 8.07989 74.8998 7.55593C74.4405 7.03197 73.6623 6.7636 72.5523 6.7636C71.4424 6.7636 70.6897 7.03197 70.2304 7.55593C69.7711 8.07989 69.5415 8.9489 69.5415 10.1502C69.5415 11.3515 69.7711 12.2205 70.2304 12.7572C70.6897 13.294 71.4679 13.5623 72.5523 13.5623Z" fill="white"/>
</svg>
